<svg id="Layer_1" data-name="Layer 1" xmlns="http://www.w3.org/2000/svg" viewBox="0 0 144 252"><defs><style>.cls-1{fill:#e2dbc7;}.cls-2{fill:#fff;}</style></defs><rect class="cls-1" x="0.17" y="0.22" width="144" height="252"/><path class="cls-2" d="M20.06,54.11c-.06-.21-.06-.45-.11-.7a7.18,7.18,0,0,1-.16-.7c0-.22,0-.47,0-.69s0-.46,0-.7,0-.46.07-.7A6.23,6.23,0,0,1,20,50c.05-.23.09-.45.16-.67s.16-.4.26-.61a4.25,4.25,0,0,1,.31-.6,4.15,4.15,0,0,1,.35-.57c.13-.18.28-.37.43-.54l.45-.44c.16-.13.34-.24.5-.37A6,6,0,0,1,23,45.8c.18-.1.39-.16.58-.25s.36-.21.55-.29.41-.08.62-.14a6.19,6.19,0,0,1,.62-.13,5.58,5.58,0,0,1,.62-.07h.63c.16,0,.16,0,.34,0h.8a4.38,4.38,0,0,1,.77.12,3.16,3.16,0,0,1,.59.16,2.32,2.32,0,0,1,.53.24,3.52,3.52,0,0,1,.38.25,1.28,1.28,0,0,1,.34.45,1,1,0,0,1,0,.55,1.21,1.21,0,0,1-.31.47,1,1,0,0,1-.49.26,1.81,1.81,0,0,1-.58.07,5.32,5.32,0,0,1-.59-.13c-.24-.08-.47-.2-.68-.25S27.22,47,27,47a4.11,4.11,0,0,0-.68,0,4.81,4.81,0,0,0-.66.13,2.6,2.6,0,0,0-.65.2,2.89,2.89,0,0,0-.6.32,3.57,3.57,0,0,0-.52.44c-.16.16-.34.31-.47.47a4.32,4.32,0,0,0-.43.55c-.11.18-.17.41-.27.62a4,4,0,0,0-.23.61c-.06.22-.11.44-.15.67a4.77,4.77,0,0,0-.06.67c0,.24,0,.45,0,.66a2.81,2.81,0,0,0,.07.67,3.06,3.06,0,0,0,.16.63c.08.21.16.39.24.57a4.86,4.86,0,0,0,.33.54,4.86,4.86,0,0,0,.78.95,2.54,2.54,0,0,0,.5.38,2.85,2.85,0,0,0,.54.32,5.25,5.25,0,0,0,.6.16,2.93,2.93,0,0,0,.6.15,2.48,2.48,0,0,0,.78.05,4.15,4.15,0,0,0,.74-.18l.48-.16c.16-.07.3-.12.45-.2a2.29,2.29,0,0,1,.6-.14,2,2,0,0,1,.6-.05,1,1,0,0,1,.55.22.93.93,0,0,1,.36.48,1,1,0,0,1,0,.6,1.15,1.15,0,0,1-.34.48,5,5,0,0,1-.62.44,3.24,3.24,0,0,1-.7.29,3.74,3.74,0,0,1-.57.17,5.81,5.81,0,0,1-.58.09l-.6,0a5.85,5.85,0,0,1-.59,0h-.65c-.21,0-.42-.09-.63-.12a4.85,4.85,0,0,1-.63-.16,4.34,4.34,0,0,1-.62-.16,6.32,6.32,0,0,1-.6-.25,5.45,5.45,0,0,1-.57-.32c-.18-.1-.36-.23-.54-.34l-.53-.38a3.88,3.88,0,0,1-.42-.39,4.78,4.78,0,0,1-.34-.47,3.72,3.72,0,0,1-.33-.45,4.07,4.07,0,0,1-.31-.49,4.87,4.87,0,0,1-.21-.53C20.24,54.57,20.13,54.35,20.06,54.11Z"/><path class="cls-2" d="M43.83,57.36s0,0,0,0a1,1,0,0,1-.93,1s0,0-.08,0a1.32,1.32,0,0,1-.48-.06,1.28,1.28,0,0,1-.38-.29,3.72,3.72,0,0,1-.44-.38,1.86,1.86,0,0,1-.29-.48,4.28,4.28,0,0,0-.32-.59v0a3,3,0,0,0-.44-.54,2.34,2.34,0,0,0-.62-.29,2.06,2.06,0,0,0-.66-.16l-.65,0c-.21,0-.42-.06-.65-.06s-.42.05-.64.05-.43-.05-.64,0-.44,0-.65,0a2.09,2.09,0,0,0-.56.14,1.75,1.75,0,0,0-.52.23,2,2,0,0,0-.42.4,2.77,2.77,0,0,0-.37.44c-.1.18-.13.36-.21.49s-.2.33-.29.47a1.41,1.41,0,0,1-.38.39,1.48,1.48,0,0,1-.48.2,1.61,1.61,0,0,1-.56.08,1.11,1.11,0,0,1-.48-.25.85.85,0,0,1-.23-.45.92.92,0,0,1,0-.52,4.74,4.74,0,0,1,.15-.57c.06-.18.14-.36.21-.54s.21-.4.3-.63.15-.44.25-.65.19-.37.27-.57l.26-.55c.08-.19.13-.4.21-.6a3.57,3.57,0,0,0,.23-.57c.07-.18.18-.34.25-.5s.13-.37.19-.54.2-.34.28-.5a3.68,3.68,0,0,1,.21-.45,4.78,4.78,0,0,1,.19-.48c.07-.17.15-.34.23-.51l.23-.51c.08-.18.14-.35.22-.53s.12-.33.18-.49a4,4,0,0,0,.21-.47l.26-.54.23-.53a2.5,2.5,0,0,1,.49-.75,1.66,1.66,0,0,1,.53-.36,1.64,1.64,0,0,1,.62-.09,1.45,1.45,0,0,1,.6.17,2,2,0,0,1,.52.36,4.78,4.78,0,0,1,.36.49,4,4,0,0,1,.24.55l.25.5c.06.18.17.33.24.51s.14.34.23.5.17.37.26.55.11.39.19.59.18.35.26.55.15.37.23.57.18.37.24.55.15.39.23.57.14.39.24.58a6,6,0,0,0,.28.57l.24.6c.1.21.21.39.29.6s.13.42.21.62.15.34.23.52.13.34.21.52a6.48,6.48,0,0,1,.33.57c.06.16.14.34.21.52A2.55,2.55,0,0,1,43.83,57.36ZM39,51.9c0-.16-.08-.32-.15-.52a3.93,3.93,0,0,0-.34-.68,3.75,3.75,0,0,0-.41-.63.76.76,0,0,0-.6-.31.73.73,0,0,0-.65.21,2.69,2.69,0,0,0-.34.49l-.31.53c-.09.23-.16.44-.22.65a2.57,2.57,0,0,0-.12.68,1.45,1.45,0,0,0,.2.77,1.3,1.3,0,0,0,.63.44,1.91,1.91,0,0,0,.76.14s0-.05,0-.05v0a1.82,1.82,0,0,0,.86-.18,1.12,1.12,0,0,0,.54-.39,1.13,1.13,0,0,0,.13-.64A3.36,3.36,0,0,0,39,51.9Z"/><path class="cls-2" d="M56.13,57.75a.85.85,0,0,1-.44.5,1.29,1.29,0,0,1-.65.13H55v0a3,3,0,0,1-.6-.08,5.26,5.26,0,0,1-.6-.15,4.92,4.92,0,0,1-.58-.26,3.75,3.75,0,0,1-.57-.28,5.35,5.35,0,0,1-.54-.34q-.24-.2-.48-.42a4.65,4.65,0,0,1-.44-.45c-.15-.17-.33-.28-.46-.46a6.3,6.3,0,0,1-.37-.53c-.11-.18-.2-.39-.29-.57s-.23-.38-.31-.57a3.81,3.81,0,0,1-.15-.44l0,0a1.36,1.36,0,0,0-1.23-.94h0a1.69,1.69,0,0,0-.58.24,1.3,1.3,0,0,0-.46.44,1.69,1.69,0,0,0-.19.6,2.12,2.12,0,0,0-.06.57,4.17,4.17,0,0,0-.05.52s0,0,0,0v.07c0,.11,0,.24,0,.37s0,.44,0,.67a5,5,0,0,1-.05.65v0h0a.07.07,0,0,1,0,.05,1.86,1.86,0,0,1-.08.26,1,1,0,0,1-.41.53,1,1,0,0,1-.65.2v.06A1.14,1.14,0,0,1,45,58a1.09,1.09,0,0,1-.39-.6,3.17,3.17,0,0,1-.1-.64,6.47,6.47,0,0,1-.07-.65v-.71c0-.21.07-.42.07-.65s0-.41,0-.6v-1.3c0-.29,0-.29,0-.58v-.62c0-.26,0-.28,0-.55v0h0c0-.29,0-.29,0-.59s0-.42,0-.63,0-.41,0-.6-.05-.41-.05-.62v0c0-.21,0-.4,0-.6s0-.42,0-.61v-.07a5.17,5.17,0,0,1,.07-.55,4.48,4.48,0,0,1,.1-.55,1.82,1.82,0,0,1,.19-.54,1.21,1.21,0,0,1,.39-.39,1.56,1.56,0,0,1,.54-.18s0-.06.08-.06a2.35,2.35,0,0,1,.6-.08c.16,0,.16,0,.31,0l.65,0h.65c.21,0,.42.08.65.09a3.11,3.11,0,0,0,.61,0H50a4.38,4.38,0,0,1,.62.08c.19,0,.39,0,.6,0a5.39,5.39,0,0,1,.6.16,3.75,3.75,0,0,1,.73.3,3.44,3.44,0,0,1,.63.44,3,3,0,0,1,.52.48,3.56,3.56,0,0,1,.36.62,2.73,2.73,0,0,1,.23.66,4.72,4.72,0,0,1,.11.74,2.68,2.68,0,0,1,0,.4c0,.13,0,.26,0,.39a6,6,0,0,1-.15.71,3.65,3.65,0,0,1-.16.59,2.35,2.35,0,0,1-.29.54,4.42,4.42,0,0,1-.39.47,3.14,3.14,0,0,1-.47.39,5.43,5.43,0,0,1-.54.27,3,3,0,0,1-.52.23,1.09,1.09,0,0,0-.31.78,1.27,1.27,0,0,0,.15.31c.08.16.15.34.24.5s.18.33.29.49l.36.44a6.58,6.58,0,0,0,.57.5,3.46,3.46,0,0,0,.63.39c.2.11.39.26.62.36l.67.26a1.26,1.26,0,0,1,.45.22,1.9,1.9,0,0,1,.41.34A.81.81,0,0,1,56.13,57.75ZM47,49a2.62,2.62,0,0,0,0,.28,3.9,3.9,0,0,0,.13.57,1.22,1.22,0,0,0,.31.53,1.46,1.46,0,0,0,.54.36,2.88,2.88,0,0,0,.63.15,2.81,2.81,0,0,0,.65,0,3.08,3.08,0,0,0,.63-.09c.2-.05.41-.1.62-.17a2.08,2.08,0,0,0,.42-.26,2.86,2.86,0,0,0,.37-.34,1.6,1.6,0,0,0,.36-.68,1.63,1.63,0,0,0,.07-.5c0-.07,0-.13,0-.2a1.92,1.92,0,0,0-.11-.56,2.62,2.62,0,0,0-.39-.43,2,2,0,0,0-.44-.35,2.25,2.25,0,0,0-.54-.26,2.59,2.59,0,0,0-.58-.15,4.14,4.14,0,0,0-.62,0h-.18c-.13,0-.24,0-.36,0a1.86,1.86,0,0,0-.64.21,1.45,1.45,0,0,0-.51.47,1.89,1.89,0,0,0-.31.6,3.82,3.82,0,0,0,0,.57Z"/><path class="cls-2" d="M57,49.78c0-.18,0-.38,0-.56V48.1c0-.19,0-.37,0-.57A5.24,5.24,0,0,1,57,47l.05-.52c0-.1,0-.1,0-.2a1.21,1.21,0,0,1,.47-.74,1,1,0,0,1,.86-.2,1.05,1.05,0,0,1,.71.51,1.74,1.74,0,0,1,.23.87c0,.2,0,.41,0,.6s0,.41,0,.62,0,.47,0,.72,0,.47,0,.69,0,.49,0,.72,0,.47,0,.71,0,.28,0,.55,0,.28,0,.57v.55c0,.28,0,.28,0,.56s0,.4,0,.61v.6c0,.2,0,.41,0,.6s0,.41,0,.62,0,.41,0,.6v.6a4,4,0,0,1-.1.75,1.1,1.1,0,0,1-.34.65,1,1,0,0,1-.7.28,1.33,1.33,0,0,1-.19,0,1,1,0,0,1-.57-.3,1,1,0,0,1-.37-.55,4.29,4.29,0,0,1-.05-.65,5.76,5.76,0,0,1,0-.63c0-.23,0-.44,0-.67s0-.43,0-.65V53.51c0-.23,0-.46,0-.67s0-.43,0-.66,0-.36,0-.73,0-.38,0-.75S57,50.25,57,49.78Z"/><path class="cls-2" d="M73.42,47.41v.64c0,.22,0,.43,0,.64V50c0,.21,0,.44,0,.65s0,.43,0,.64,0,.42,0,.63,0,.42,0,.63,0,.44,0,.65,0,.42,0,.64,0,.42,0,.63v.63c0,.21,0,.42,0,.65s0,.42,0,.63a6.48,6.48,0,0,1-.08.77v.23a2.37,2.37,0,0,1-.18.55,1.21,1.21,0,0,1-.41.4,1.4,1.4,0,0,1-.55.21,3.58,3.58,0,0,1-.72.07,3.39,3.39,0,0,1-.89-.15,1.6,1.6,0,0,1-.5-.21,2.25,2.25,0,0,1-.46-.32,2.41,2.41,0,0,1-.37-.41c-.1-.16-.18-.32-.28-.47l-.29-.47c-.1-.15-.21-.29-.31-.46s-.14-.32-.24-.48-.21-.29-.31-.46-.21-.27-.31-.43-.16-.35-.26-.51-.21-.32-.32-.49l-.29-.48-.3-.51c-.09-.17-.21-.34-.3-.5s-.25-.32-.35-.49-.21-.34-.32-.5L65,50.73a5.37,5.37,0,0,0-.49-.6c-.05,0-.1,0-.15-.05a.71.71,0,0,0-.63-.21.68.68,0,0,0-.44.49c-.06.21-.11.41-.16.6s-.1.41-.12.6,0,.44,0,.63,0,.39,0,.59v.6c0,.19,0,.39,0,.6s0,.39,0,.59v1.34c0,.26,0,.51,0,.77v.08a2.44,2.44,0,0,1-.11.73,1.09,1.09,0,0,1-.36.6,1.06,1.06,0,0,1-.67.19,1.15,1.15,0,0,1-.66-.18,1.17,1.17,0,0,1-.37-.58.68.68,0,0,1,0-.23v-.06a3.37,3.37,0,0,1-.12-.55c0-.18,0-.36,0-.56s0-.42,0-.63v-.63c0-.21,0-.41,0-.62s.05-.42.05-.63,0-.43,0-.64,0-.29,0-.58,0-.31,0-.6v-.52c0-.28,0-.28,0-.54s0-.44,0-.65v-.65c0-.22,0-.43,0-.66s0-.44,0-.65,0-.44,0-.67a5.81,5.81,0,0,1,.09-.58,3.73,3.73,0,0,1,0-.59,1.45,1.45,0,0,1,.41-.66,1.36,1.36,0,0,1,.65-.42,4.74,4.74,0,0,1,.67-.07,3.69,3.69,0,0,1,.66,0,5.09,5.09,0,0,1,.68.12,2.35,2.35,0,0,1,.54.29,1.76,1.76,0,0,1,.42.44l.37.45c.12.18.17.38.28.54l.36.6c.13.19.26.39.37.58l.36.6c.11.2.26.36.37.54s.2.37.31.55l.16.28c.12.18.23.36.34.55s.25.34.36.54.24.34.36.53l.34.54c.1.16.21.31.31.45s.21.31.32.44a1.27,1.27,0,0,0,.62.36.45.45,0,0,0,.45-.05,1.13,1.13,0,0,0,.42-.8.71.71,0,0,1,0-.21c0-.22.07-.44.08-.63s0-.42,0-.63,0-.46,0-.69,0-.47,0-.69,0-.46,0-.69,0-.45,0-.68,0-.45,0-.68c0-.44,0-.44,0-.86a5.05,5.05,0,0,1,0-.52,2.16,2.16,0,0,1,.15-.5,1,1,0,0,1,.29-.42,1.2,1.2,0,0,1,.47-.22,1.11,1.11,0,0,1,.5.09.87.87,0,0,1,.44.24,1.07,1.07,0,0,1,.33.65l0,.27A6.08,6.08,0,0,1,73.42,47.41Z"/><path class="cls-2" d="M86.51,57.36s0,0,0,0a1,1,0,0,1-.25.71,1,1,0,0,1-.68.33s0,0-.08,0a1.38,1.38,0,0,1-.49-.06c-.15-.05-.24-.18-.37-.29a3.72,3.72,0,0,1-.44-.38,1.86,1.86,0,0,1-.29-.48,5.82,5.82,0,0,0-.33-.59v0a2.6,2.6,0,0,0-.44-.54,2.14,2.14,0,0,0-.61-.29,2.06,2.06,0,0,0-.67-.16l-.65,0c-.21,0-.42-.06-.65-.06s-.42.05-.63.05-.44-.05-.65,0-.44,0-.65,0a2.12,2.12,0,0,0-.55.14,1.64,1.64,0,0,0-.52.23,2,2,0,0,0-.42.4,2.36,2.36,0,0,0-.38.44c-.09.18-.13.36-.21.49a4.83,4.83,0,0,1-.29.47,1.37,1.37,0,0,1-.37.39,1.44,1.44,0,0,1-.49.2,1.56,1.56,0,0,1-.55.08,1.2,1.2,0,0,1-.49-.25.92.92,0,0,1-.23-.45,1.14,1.14,0,0,1,0-.52,4.74,4.74,0,0,1,.15-.57c.06-.18.15-.36.21-.54s.21-.4.31-.63.14-.44.24-.65.2-.37.28-.57l.26-.55c.08-.19.13-.4.21-.6s.16-.37.23-.57.17-.34.24-.5.13-.37.19-.54.2-.34.28-.5.13-.31.21-.45.12-.31.2-.48.14-.34.22-.51a4.49,4.49,0,0,0,.23-.51l.23-.53c.06-.15.11-.33.18-.49s.14-.31.21-.47l.26-.54c.08-.18.14-.35.23-.53a2.68,2.68,0,0,1,.48-.75,1.7,1.7,0,0,1,.54-.36,1.58,1.58,0,0,1,.62-.09,1.49,1.49,0,0,1,.6.17,2.21,2.21,0,0,1,.52.36,3.59,3.59,0,0,1,.35.49,4,4,0,0,1,.25.55l.24.5c.06.18.18.33.24.51s.15.34.23.5.18.37.26.55.11.39.2.59.17.35.25.55.15.37.23.57.18.37.25.55.14.39.22.57.15.39.25.58.18.38.27.57l.25.6c.09.21.21.39.29.6s.13.42.21.62.15.34.23.52.13.34.21.52a6.38,6.38,0,0,1,.32.57c.07.16.15.34.21.52A3.37,3.37,0,0,1,86.51,57.36ZM81.7,51.9a5.19,5.19,0,0,0-.14-.52,4.86,4.86,0,0,0-.35-.68,4.4,4.4,0,0,0-.4-.63.79.79,0,0,0-.6-.31.73.73,0,0,0-.65.21,2.27,2.27,0,0,0-.34.49c-.12.18-.21.35-.31.53s-.16.44-.23.65a3,3,0,0,0-.11.68,1.44,1.44,0,0,0,.19.77,1.29,1.29,0,0,0,.64.44,1.88,1.88,0,0,0,.76.14s0-.05,0-.05v0a1.82,1.82,0,0,0,.86-.18.91.91,0,0,0,.66-1A3.36,3.36,0,0,0,81.7,51.9Z"/><path class="cls-2" d="M93,58.41a1.15,1.15,0,0,1-.52-.32,1.31,1.31,0,0,1-.34-.52,1.74,1.74,0,0,1-.07-.62c0-.19,0-.37,0-.55s0-.33,0-.65,0-.32,0-.65,0-.34,0-.66v-.65c0-.33,0-.33,0-.65s0-.34,0-.67,0-.32,0-.65v-.65c0-.32,0-.32,0-.65v-1.2c0-.19,0-.39,0-.58s0-.41,0-.6,0-.39,0-.59,0-.4,0-.6,0-.32.06-.52a1.52,1.52,0,0,1,.12-.5,1,1,0,0,1,.34-.38.89.89,0,0,1,.43-.22,1,1,0,0,1,.51,0,1.08,1.08,0,0,1,.45.26,1.3,1.3,0,0,1,.36.72l.05.65a4.74,4.74,0,0,1,0,.65v.6c0,.21,0,.4,0,.6s-.05.4-.05.6,0,.4,0,.6,0,.39,0,.6v.6c0,.2,0,.39,0,.6s0,.39,0,.59,0,.29,0,.58v.58c0,.3,0,.3,0,.59s0,.32,0,.49a2.61,2.61,0,0,0,0,.48,1.68,1.68,0,0,0,.25.54,1.6,1.6,0,0,0,.43.39,1.65,1.65,0,0,0,.54.21,2.64,2.64,0,0,0,.68.13c.26,0,.26,0,.5,0s.33.05.49.05.33,0,.49,0a2.69,2.69,0,0,1,.57.07,4.87,4.87,0,0,1,.55.06,1.92,1.92,0,0,1,.44.17.92.92,0,0,1,.44.63,1,1,0,0,1-.2.76,1.16,1.16,0,0,1-.7.38,4.93,4.93,0,0,1-.73.08c-.19,0-.4,0-.61,0s-.43-.05-.64-.05-.42.05-.61.05h-.64c-.29,0-.58,0-.89,0s-.44,0-.88,0c-.11,0-.22-.05-.34-.05A2.15,2.15,0,0,1,93,58.41Z"/><path class="cls-2" d="M101.3,58.32a1.47,1.47,0,0,1-.5-.52,1.67,1.67,0,0,1-.24-.67,3.31,3.31,0,0,1,0-.42c0-.21-.07-.42-.07-.65s0-.44,0-.65,0-.44,0-.67,0-.43,0-.65,0-.43,0-.65-.07-.43-.07-.66,0-.44,0-.65v-.65c0-.23,0-.44,0-.67s0-.43,0-.65,0-.43,0-.64v-.67c0-.21,0-.44,0-.65s0-.44,0-.65,0-.44,0-.66a4.26,4.26,0,0,1,.05-.64,1.48,1.48,0,0,1,.34-.7,1.34,1.34,0,0,1,.7-.32c.16,0,.34-.08.54-.1a3.35,3.35,0,0,1,.55,0h0c.21,0,.43,0,.62,0h1.27c.19,0,.4,0,.61,0l.64,0,.61,0c.22,0,.43,0,.64,0l.48,0a2,2,0,0,1,.49.05,1.8,1.8,0,0,1,.46.21,1.07,1.07,0,0,1,.4.34.88.88,0,0,1,.13.52.93.93,0,0,1-.21.45,1.07,1.07,0,0,1-.37.33,2,2,0,0,1-.86.14c-.2,0-.2.07-.38.07s-.35,0-.53,0l-.52,0h-.54a5.23,5.23,0,0,0-.68,0c-.23,0-.44.06-.68.1a2.05,2.05,0,0,0-.7.21,1.3,1.3,0,0,0-.49.55,1.8,1.8,0,0,0-.14.71c0,.05,0,.12,0,.17s0,.16,0,.24a1.74,1.74,0,0,0,.15.52,1.62,1.62,0,0,0,.28.45,1.41,1.41,0,0,0,.48.28,3.56,3.56,0,0,0,.68.15,5.68,5.68,0,0,0,.72,0l.57,0h.57l.55,0s0-.05.06-.05a4.3,4.3,0,0,1,.46.07,1.94,1.94,0,0,1,.53.16,1.07,1.07,0,0,1,.44.32,1,1,0,0,1,.2.52.86.86,0,0,1-.2.49,1.13,1.13,0,0,1-.4.31,3.14,3.14,0,0,1-.49.15,3.07,3.07,0,0,1-.52.06c-.1,0-.1,0-.2,0s-.43,0-.66,0-.46,0-.68,0a4,4,0,0,0-.6,0c-.2,0-.39,0-.61.05a2.12,2.12,0,0,0-.6.2,1.29,1.29,0,0,0-.48.4,1.73,1.73,0,0,0-.3.59c0,.18,0,.4,0,.65a2,2,0,0,0,.15.68,1.36,1.36,0,0,0,.34.57,1.71,1.71,0,0,0,.57.35,2.57,2.57,0,0,0,.92.15l.17,0c.29,0,.56.05.86.05s.47-.05.69-.05h.72l.55,0c.18,0,.36.06.55.1a2.07,2.07,0,0,1,.42.14,1,1,0,0,1,.59.7,1,1,0,0,1-.36.85,1.17,1.17,0,0,1-.65.29l-.47.05h-1.62c-.33,0-.33,0-.65,0s-.33,0-.65,0h-1.33c-.2,0-.39,0-.59,0l-.6,0s0,0,0,0a4.52,4.52,0,0,1-.52,0A1.9,1.9,0,0,1,101.3,58.32Z"/><path class="cls-2" d="M110.74,58.32a1.49,1.49,0,0,1-.51-.52,1.67,1.67,0,0,1-.24-.67,3.31,3.31,0,0,1,0-.42c0-.21-.06-.42-.06-.65s0-.44,0-.65,0-.44,0-.67,0-.43,0-.65,0-.43,0-.65S110,53,110,52.78s.05-.44.05-.65v-.65c0-.23,0-.44,0-.67s0-.43,0-.65,0-.43,0-.64v-.67c0-.21,0-.44,0-.65s0-.44,0-.65,0-.44,0-.66a3.26,3.26,0,0,1,0-.64,1.4,1.4,0,0,1,.34-.7,1.34,1.34,0,0,1,.69-.32c.17,0,.35-.08.54-.1a3.37,3.37,0,0,1,.55,0h0c.21,0,.42,0,.62,0h1.26c.2,0,.41,0,.62,0l.63,0,.62,0c.21,0,.42,0,.63,0a4,4,0,0,1,.49,0,2.09,2.09,0,0,1,.49.05,1.62,1.62,0,0,1,.45.21,1.11,1.11,0,0,1,.41.34.76.76,0,0,1-.09,1,1,1,0,0,1-.37.33,2,2,0,0,1-.86.14c-.19,0-.19.07-.37.07s-.36,0-.54,0l-.52,0h-.53a5.31,5.31,0,0,0-.69,0c-.22,0-.43.06-.68.1a2,2,0,0,0-.69.21,1.24,1.24,0,0,0-.49.55,1.64,1.64,0,0,0-.15.71c0,.05,0,.12,0,.17s0,.16,0,.24a1.73,1.73,0,0,0,.14.52,1.89,1.89,0,0,0,.28.45,1.37,1.37,0,0,0,.49.28,3.56,3.56,0,0,0,.68.15,5.53,5.53,0,0,0,.71,0l.57,0h.57l.55,0s0-.05.07-.05a4.14,4.14,0,0,1,.45.07,2,2,0,0,1,.54.16,1.22,1.22,0,0,1,.44.32,1.13,1.13,0,0,1,.19.52.92.92,0,0,1-.19.49,1.17,1.17,0,0,1-.41.31,3.14,3.14,0,0,1-.49.15,3.07,3.07,0,0,1-.52.06c-.09,0-.09,0-.19,0s-.44,0-.67,0-.45,0-.68,0a4,4,0,0,0-.6,0c-.19,0-.39,0-.6.05a1.92,1.92,0,0,0-.6.2,1.41,1.41,0,0,0-.49.4,1.55,1.55,0,0,0-.29.59,6,6,0,0,0,0,.65,2.17,2.17,0,0,0,.14.68,1.36,1.36,0,0,0,.34.57,1.82,1.82,0,0,0,.57.35,2.59,2.59,0,0,0,.93.15l.16,0c.29,0,.57.05.86.05s.47-.05.7-.05h.71l.55,0c.18,0,.36.06.56.1a2.58,2.58,0,0,1,.42.14,1,1,0,0,1,.58.7,1,1,0,0,1-.35.85,1.21,1.21,0,0,1-.65.29l-.47.05H115.8c-.32,0-.32,0-.65,0s-.32,0-.65,0h-1.33l-.58,0-.6,0s0,0,0,0a4.35,4.35,0,0,1-.51,0A1.85,1.85,0,0,1,110.74,58.32Z"/><path class="cls-2" d="M122.92,56.87a1.44,1.44,0,1,1-1.47-1.43A1.49,1.49,0,0,1,122.92,56.87Z"/><path class="cls-2" d="M39.18,69.22,38.72,68h0l.16,1.21v3.47h-1.2V65.6h1l2,3.53.43,1.21h.06L41,69.15v-3.5h1.2v7.07h-1Z"/><path class="cls-2" d="M43.05,65.65h3.51v1.16H44.31v1.73h2V69.7h-2v1.81H46.6v1.16H43.05Z"/><path class="cls-2" d="M49,69.51l.1,1.26h0l.11-1.28.94-3.84H51L52,69.51l.11,1.26h0l.11-1.28.62-3.84h1.28l-1.57,7.07h-.89l-1-3.87-.14-1.09h-.05l-.12,1.1-1,3.86h-.93l-1.56-7.07h1.39Z"/><path class="cls-2" d="M60.38,67.28a2.22,2.22,0,0,1-.06.51,1.62,1.62,0,0,1-.17.48,1.37,1.37,0,0,1-.78.66V69a1.77,1.77,0,0,1,.45.18,1.19,1.19,0,0,1,.38.33,1.56,1.56,0,0,1,.25.5,2,2,0,0,1,.1.69,2.1,2.1,0,0,1-.19.94,1.72,1.72,0,0,1-.5.65,2.14,2.14,0,0,1-.74.37,3.19,3.19,0,0,1-.89.12h-.36l-.47,0-.53,0a3.44,3.44,0,0,1-.5-.09V65.7c.22,0,.49-.07.82-.1s.64,0,1,0a5.73,5.73,0,0,1,.85.07,2.14,2.14,0,0,1,.71.26,1.39,1.39,0,0,1,.49.53A1.82,1.82,0,0,1,60.38,67.28Zm-2.46,1.35.26,0,.23,0a1.11,1.11,0,0,0,.5-.36,1,1,0,0,0,.2-.65,1.13,1.13,0,0,0-.07-.44.67.67,0,0,0-.19-.29.69.69,0,0,0-.28-.15,1.36,1.36,0,0,0-.36,0,3.59,3.59,0,0,0-.58,0v1.95Zm.34,3.05a.93.93,0,0,0,.69-.27,1.33,1.33,0,0,0,.18-1.32.73.73,0,0,0-.24-.3.79.79,0,0,0-.34-.14,2.73,2.73,0,0,0-.41,0h-.51v2a1.31,1.31,0,0,0,.28,0Z"/><path class="cls-2" d="M61.28,65.65h3.51v1.16H62.54v1.73h2V69.7h-2v1.81h2.29v1.16H61.28Z"/><path class="cls-2" d="M65.59,65.65l.41,0,.46,0,.45,0h.39a3.32,3.32,0,0,1,1.39.26,2.19,2.19,0,0,1,.89.72,2.78,2.78,0,0,1,.48,1.12,7.59,7.59,0,0,1,0,2.85,3.21,3.21,0,0,1-.48,1.17,2.49,2.49,0,0,1-.92.81,3.21,3.21,0,0,1-1.47.3h-.35l-.46,0-.46,0-.34,0Zm1.84,1.06h-.32l-.26,0v4.84h.53a1.26,1.26,0,0,0,.75-.21,1.43,1.43,0,0,0,.45-.57,2.68,2.68,0,0,0,.23-.8,6,6,0,0,0,.07-1,6.44,6.44,0,0,0-.06-.89,2.18,2.18,0,0,0-.21-.76,1.24,1.24,0,0,0-.44-.52A1.27,1.27,0,0,0,67.43,66.71Z"/><path class="cls-2" d="M71,65.65h3.51v1.16H72.22v1.83h2.06V69.8H72.22v2.87H71Z"/><path class="cls-2" d="M75,69.16a5,5,0,0,1,.61-2.72,2.08,2.08,0,0,1,1.87-.93,2.32,2.32,0,0,1,1.12.26,2.07,2.07,0,0,1,.77.73,3.64,3.64,0,0,1,.45,1.15A7.05,7.05,0,0,1,80,69.16a4.87,4.87,0,0,1-.62,2.72,2.1,2.1,0,0,1-1.86.93,2.33,2.33,0,0,1-1.13-.26,2.07,2.07,0,0,1-.77-.73,3.63,3.63,0,0,1-.44-1.15A7.68,7.68,0,0,1,75,69.16Zm1.33,0a6.27,6.27,0,0,0,.06,1,2.78,2.78,0,0,0,.2.78,1.49,1.49,0,0,0,.35.53.83.83,0,0,0,.54.19.92.92,0,0,0,.87-.6,4.59,4.59,0,0,0,.29-1.89,7.54,7.54,0,0,0-.06-1,4,4,0,0,0-.19-.79,1.38,1.38,0,0,0-.36-.53.81.81,0,0,0-.55-.2C76.7,66.67,76.32,67.5,76.32,69.16Z"/><path class="cls-2" d="M80.7,65.72a7.13,7.13,0,0,1,.88-.13c.31,0,.58,0,.81,0a3.86,3.86,0,0,1,.84.09A1.84,1.84,0,0,1,84,66a1.62,1.62,0,0,1,.51.61,2.16,2.16,0,0,1,.2,1,2.68,2.68,0,0,1-.32,1.38,1.61,1.61,0,0,1-.87.74l.4.32,1.3,2.69H83.72L82.5,69.9,82,69.77v2.9H80.7ZM82,68.91h.43a.88.88,0,0,0,.71-.29,1.34,1.34,0,0,0,.24-.88,1.29,1.29,0,0,0-.2-.74.71.71,0,0,0-.63-.29H82.2a1.19,1.19,0,0,0-.24,0Z"/><path class="cls-2" d="M85.74,65.65l.4,0,.46,0,.46,0h.39a3.32,3.32,0,0,1,1.39.26,2.19,2.19,0,0,1,.89.72,2.93,2.93,0,0,1,.48,1.12,7.32,7.32,0,0,1,0,2.85,3.38,3.38,0,0,1-.47,1.17,2.45,2.45,0,0,1-.93.81,3.13,3.13,0,0,1-1.46.3H87l-.46,0-.46,0-.34,0Zm1.84,1.06h-.32l-.26,0v4.84h.53a1.22,1.22,0,0,0,.74-.21,1.37,1.37,0,0,0,.46-.57A2.68,2.68,0,0,0,89,70a7.5,7.5,0,0,0,.06-1,6.46,6.46,0,0,0,0-.89,2.72,2.72,0,0,0-.21-.76,1.24,1.24,0,0,0-.44-.52A1.29,1.29,0,0,0,87.58,66.71Z"/><path class="cls-2" d="M90.73,72a.69.69,0,0,1,.2-.54.68.68,0,0,1,.5-.19.71.71,0,0,1,.59.27,1.26,1.26,0,0,1,.2.75,2.2,2.2,0,0,1-.12.76,2.32,2.32,0,0,1-.31.54,2,2,0,0,1-.38.34,2.14,2.14,0,0,1-.36.19l-.37-.48a1.16,1.16,0,0,0,.41-.39,1,1,0,0,0,.2-.53.5.5,0,0,1-.39-.17A.77.77,0,0,1,90.73,72Z"/><path class="cls-2" d="M98.75,69.05l.14-1.34h0l-.37,1.2-1.15,2.47H96.9L95.69,68.9l-.37-1.21h-.06L95.45,69v3.63H94.26v-7h1.21l1.46,3,.24.87h0l.23-.89,1.38-3H100v7H98.75Z"/><path class="cls-2" d="M103.75,71.06h-1.66l-.41,1.61h-1.25l2-7.07h1l2,7.07h-1.32Zm-1.38-1h1.16l-.4-1.63-.16-1.1h0l-.17,1.11Z"/></svg>