<svg id="Layer_1" data-name="Layer 1" xmlns="http://www.w3.org/2000/svg" xmlns:xlink="http://www.w3.org/1999/xlink" viewBox="0 0 144 252"><defs><style>.cls-1{fill:#e2dbc7;}.cls-2{fill:#fff;}.cls-3{fill:url(#radial-gradient);}.cls-4{fill:url(#new);}.cls-5{fill:url(#new-2);}.cls-6{fill:url(#radial-gradient-2);}.cls-7{fill:url(#new-3);}</style><radialGradient id="radial-gradient" cx="36.7" cy="173.31" r="36.73" gradientTransform="matrix(0.77, 0.64, -0.64, 0.77, 125.65, 20.46)" gradientUnits="userSpaceOnUse"><stop offset="0.18" stop-color="#e0bac1"/><stop offset="0.78" stop-color="#ef9d40"/><stop offset="0.99" stop-color="#75a0af"/></radialGradient><radialGradient id="new" cx="120.84" cy="245.5" r="36.78" gradientUnits="userSpaceOnUse"><stop offset="0.18" stop-color="#e0bac1"/><stop offset="0.56" stop-color="#ef9d40"/><stop offset="0.91" stop-color="#75a0af"/></radialGradient><radialGradient id="new-2" cx="87.65" cy="74.99" r="74.36" xlink:href="#new"/><radialGradient id="radial-gradient-2" cx="925.1" cy="-285.85" r="26.48" gradientTransform="translate(930.18 533.89) rotate(-135)" gradientUnits="userSpaceOnUse"><stop offset="0.18" stop-color="#e0bac1"/><stop offset="0.68" stop-color="#ef9d40"/><stop offset="1" stop-color="#75a0af"/></radialGradient><radialGradient id="new-3" cx="13.8" cy="9.21" r="54.06" xlink:href="#new"/></defs><rect class="cls-1" x="0.3" y="0.22" width="144" height="252"/><path class="cls-2" d="M13.75,224.22h2.59v3.72a2.6,2.6,0,0,1-1,.61,4.09,4.09,0,0,1-1.18.19,3.2,3.2,0,0,1-1.29-.26,2.35,2.35,0,0,1-1-.78,4,4,0,0,1-.63-1.36,7.54,7.54,0,0,1-.22-2,7,7,0,0,1,.26-2A3.92,3.92,0,0,1,12,221a2.58,2.58,0,0,1,1-.76,3.32,3.32,0,0,1,1.23-.23,4.93,4.93,0,0,1,1,.1,4.55,4.55,0,0,1,.78.24l-.31,1.3a3.36,3.36,0,0,0-.56-.18,4.13,4.13,0,0,0-.77-.07,1.7,1.7,0,0,0-.76.17,1.46,1.46,0,0,0-.58.53,2.66,2.66,0,0,0-.36.93,6.6,6.6,0,0,0-.13,1.36,4.2,4.2,0,0,0,.47,2.24,1.38,1.38,0,0,0,1.21.72,1.49,1.49,0,0,0,.47-.07,1.12,1.12,0,0,0,.39-.23V225.3l-1.38-.18Z"/><path class="cls-2" d="M17.23,220.25a8,8,0,0,1,1.05-.15,9.11,9.11,0,0,1,1,0,4.81,4.81,0,0,1,1,.1,2.27,2.27,0,0,1,.87.37,2,2,0,0,1,.61.73,2.54,2.54,0,0,1,.24,1.17,3.3,3.3,0,0,1-.38,1.67,2,2,0,0,1-1,.88l.48.38,1.55,3.22H20.85l-1.46-3.31-.65-.16v3.47H17.23Zm1.51,3.82h.51a1.1,1.1,0,0,0,.86-.34,1.67,1.67,0,0,0,.28-1.07,1.5,1.5,0,0,0-.24-.88.85.85,0,0,0-.75-.34H19a1.55,1.55,0,0,0-.29.05Z"/><path class="cls-2" d="M26.28,226.65h-2l-.49,1.92H22.3l2.44-8.46h1.19l2.44,8.46H26.79Zm-1.66-1.23H26l-.48-1.95-.19-1.32h-.05l-.2,1.33Z"/><path class="cls-2" d="M28.89,220.25c.29-.06.6-.11.95-.15s.69,0,1,0a5.67,5.67,0,0,1,1.09.1,2.44,2.44,0,0,1,.95.4,2.09,2.09,0,0,1,.68.85,3.21,3.21,0,0,1,.27,1.42,3.72,3.72,0,0,1-.22,1.34,2.45,2.45,0,0,1-.6.9,2.21,2.21,0,0,1-.86.51,3.32,3.32,0,0,1-1,.15H30.8l-.24,0-.16,0v2.89H28.89Zm1.51,4.07a1.1,1.1,0,0,0,.27,0l.27,0a1.7,1.7,0,0,0,.51-.07,1,1,0,0,0,.42-.25,1.13,1.13,0,0,0,.3-.48,2.4,2.4,0,0,0,.1-.77,1.86,1.86,0,0,0-.1-.67,1.18,1.18,0,0,0-.27-.44,1.06,1.06,0,0,0-.41-.24,1.85,1.85,0,0,0-.48-.07,2.62,2.62,0,0,0-.61.06Z"/><path class="cls-2" d="M38.42,225H36.13v3.55H34.61v-8.4h1.52v3.45h2.29v-3.45h1.51v8.4H38.42Z"/><path class="cls-2" d="M41.14,220.17h1.51v8.4H41.14Z"/><path class="cls-2" d="M48.63,228.23a1.93,1.93,0,0,1-.84.39,4.53,4.53,0,0,1-1,.12,3.22,3.22,0,0,1-1.21-.23,2.36,2.36,0,0,1-1-.73,3.84,3.84,0,0,1-.66-1.36,7.62,7.62,0,0,1-.24-2.06,7.05,7.05,0,0,1,.27-2.12,3.71,3.71,0,0,1,.71-1.33,2.43,2.43,0,0,1,1-.71,3.51,3.51,0,0,1,1.14-.2,4.44,4.44,0,0,1,1,.1,3.6,3.6,0,0,1,.71.21l-.3,1.33a1.94,1.94,0,0,0-.53-.18,3.17,3.17,0,0,0-.73-.07,1.41,1.41,0,0,0-1.27.72,4.5,4.5,0,0,0-.44,2.26,6.33,6.33,0,0,0,.1,1.2,3.12,3.12,0,0,0,.32,1,1.76,1.76,0,0,0,.57.61,1.54,1.54,0,0,0,.82.21,2,2,0,0,0,.72-.11,3.4,3.4,0,0,0,.54-.27Z"/><path class="cls-2" d="M51.41,220.17c.15,0,.31,0,.49-.06l.55,0,.55,0h.46a4.09,4.09,0,0,1,1.67.3,2.68,2.68,0,0,1,1.06.87,3.47,3.47,0,0,1,.57,1.34,7.78,7.78,0,0,1,.17,1.74,8.23,8.23,0,0,1-.16,1.67,3.9,3.9,0,0,1-.57,1.4,2.88,2.88,0,0,1-1.1,1,3.83,3.83,0,0,1-1.76.36h-.42l-.55,0-.55,0a3.13,3.13,0,0,1-.41,0Zm2.21,1.27h-.39a1.3,1.3,0,0,0-.31,0v5.78l.13,0h.51a1.53,1.53,0,0,0,.89-.25,1.74,1.74,0,0,0,.54-.68,3.08,3.08,0,0,0,.28-1,8.53,8.53,0,0,0,.08-1.15,7.49,7.49,0,0,0-.07-1.07,3,3,0,0,0-.25-.9,1.55,1.55,0,0,0-.53-.63A1.57,1.57,0,0,0,53.62,221.44Z"/><path class="cls-2" d="M57.83,220.17H62v1.39H59.34v2.06h2.44V225H59.34v2.16h2.74v1.39H57.83Z"/><path class="cls-2" d="M65.93,226.41a1,1,0,0,0-.23-.66,2.86,2.86,0,0,0-.57-.51c-.22-.16-.47-.32-.74-.49a3.84,3.84,0,0,1-.74-.59,2.71,2.71,0,0,1-.57-.79,2.34,2.34,0,0,1-.23-1.11,2.66,2.66,0,0,1,.18-1,2,2,0,0,1,.51-.7,2.08,2.08,0,0,1,.77-.39,3.26,3.26,0,0,1,1-.13,5.11,5.11,0,0,1,1.14.12,3.45,3.45,0,0,1,.88.32l-.47,1.34a2.07,2.07,0,0,0-.61-.27,3,3,0,0,0-.87-.12,1.23,1.23,0,0,0-.72.19.67.67,0,0,0-.25.57.88.88,0,0,0,.23.59,3.18,3.18,0,0,0,.57.5c.23.16.47.33.74.5a4.29,4.29,0,0,1,.75.6,3.39,3.39,0,0,1,.57.8,2.51,2.51,0,0,1,.22,1.1,3.06,3.06,0,0,1-.18,1.1,2.08,2.08,0,0,1-.53.78,2.27,2.27,0,0,1-.82.46,3.59,3.59,0,0,1-1.07.16,5,5,0,0,1-1.3-.15,3.18,3.18,0,0,1-.86-.32l.49-1.36a3.55,3.55,0,0,0,.66.29,2.65,2.65,0,0,0,.9.14Q65.93,227.34,65.93,226.41Z"/><path class="cls-2" d="M68.39,220.17H69.9v8.4H68.39Z"/><path class="cls-2" d="M73.66,224.22h2.59v3.72a2.6,2.6,0,0,1-1,.61,4,4,0,0,1-1.18.19,3.11,3.11,0,0,1-1.28-.26,2.38,2.38,0,0,1-1-.78,3.8,3.8,0,0,1-.62-1.36,7.5,7.5,0,0,1-.23-2,6.61,6.61,0,0,1,.27-2,3.9,3.9,0,0,1,.7-1.35,2.58,2.58,0,0,1,1-.76,3.4,3.4,0,0,1,1.23-.23,4.93,4.93,0,0,1,1,.1,4.69,4.69,0,0,1,.79.24l-.32,1.3a3.23,3.23,0,0,0-.55-.18,4.34,4.34,0,0,0-.78-.07,1.73,1.73,0,0,0-.76.17,1.46,1.46,0,0,0-.58.53,3.11,3.11,0,0,0-.36.93,6.67,6.67,0,0,0-.12,1.36,4.21,4.21,0,0,0,.46,2.24,1.39,1.39,0,0,0,1.22.72,1.43,1.43,0,0,0,.46-.07A1,1,0,0,0,75,227V225.3l-1.38-.18Z"/><path class="cls-2" d="M79,224.44,78.44,223h-.06l.19,1.46v4.15H77.14v-8.46H78.3l2.42,4.22.51,1.45h.07l-.19-1.42v-4.19h1.43v8.46H81.38Z"/><path class="cls-2" d="M83.62,220.17h4.2v1.39H85.13v2.06h2.44V225H85.13v2.16h2.74v1.39H83.62Z"/><path class="cls-2" d="M88.78,220.25a8.29,8.29,0,0,1,1-.15,9.16,9.16,0,0,1,1,0,4.87,4.87,0,0,1,1,.1,2.41,2.41,0,0,1,.87.37,2.09,2.09,0,0,1,.61.73,2.68,2.68,0,0,1,.23,1.17,3.2,3.2,0,0,1-.38,1.67,2,2,0,0,1-1,.88l.48.38,1.54,3.22H92.4l-1.46-3.31-.65-.16v3.47H88.78Zm1.51,3.82h.52a1.08,1.08,0,0,0,.85-.34,1.67,1.67,0,0,0,.29-1.07,1.5,1.5,0,0,0-.24-.88.87.87,0,0,0-.76-.34h-.37a1.55,1.55,0,0,0-.29.05Z"/><circle class="cls-3" cx="34.6" cy="183.6" r="24.63"/><path class="cls-4" d="M130.11,220a24.63,24.63,0,0,0-23.43,32.22H144V224.31A24.49,24.49,0,0,0,130.11,220Z"/><circle class="cls-5" cx="103.15" cy="56.35" r="36.16"/><circle class="cls-6" cx="80.22" cy="77.71" r="17.76"/><path class="cls-7" d="M37.74,2.94A23.91,23.91,0,0,0,34.46.22H7.14A24,24,0,0,0,3.85,2.94,23.79,23.79,0,0,0,0,8V31.79A24,24,0,1,0,37.74,2.94Z"/><path class="cls-2" d="M19.64,125.11c-.06-.21-.06-.45-.11-.7a7,7,0,0,1-.16-.69c0-.23,0-.48,0-.7s0-.46,0-.7,0-.46.07-.7a6.23,6.23,0,0,1,.13-.65,6.37,6.37,0,0,1,.16-.66c.08-.21.16-.41.26-.62a4.25,4.25,0,0,1,.31-.6,4.15,4.15,0,0,1,.35-.57,5.52,5.52,0,0,1,.43-.53l.45-.44.5-.38a6,6,0,0,1,.51-.37,5.89,5.89,0,0,1,.58-.24c.2-.1.36-.22.55-.3s.41-.08.62-.14a6.19,6.19,0,0,1,.62-.13l.62-.07h.63c.16,0,.16,0,.34,0h.8a4.38,4.38,0,0,1,.77.12c.22.05.41.1.59.16a3.69,3.69,0,0,1,.53.24,3.52,3.52,0,0,1,.38.25,1.28,1.28,0,0,1,.34.45,1,1,0,0,1,0,.55,1.14,1.14,0,0,1-.31.47,1,1,0,0,1-.49.26,1.57,1.57,0,0,1-.58.07,5.32,5.32,0,0,1-.59-.13,6.24,6.24,0,0,0-.68-.24,6,6,0,0,0-.72-.07c-.24,0-.47-.06-.68,0a4.81,4.81,0,0,0-.66.13,2.6,2.6,0,0,0-.65.2,2.89,2.89,0,0,0-.6.32,4.32,4.32,0,0,0-.52.44,5.21,5.21,0,0,0-.47.47,4.32,4.32,0,0,0-.43.55c-.11.18-.17.41-.27.62a4.16,4.16,0,0,0-.23.62c-.06.21-.11.44-.15.66a4.77,4.77,0,0,0-.06.67c0,.24,0,.45,0,.66A2.81,2.81,0,0,0,22,124a2.9,2.9,0,0,0,.16.63c.08.21.16.39.24.57a4.09,4.09,0,0,0,.33.54,3.75,3.75,0,0,0,.36.5,6.2,6.2,0,0,0,.42.46,2.94,2.94,0,0,0,.5.37,2.85,2.85,0,0,0,.54.32c.17.08.4.1.6.17a3.75,3.75,0,0,0,.6.14,2.48,2.48,0,0,0,.78,0,4.15,4.15,0,0,0,.74-.18c.18,0,.33-.11.47-.16a3.19,3.19,0,0,0,.46-.2,2.29,2.29,0,0,1,.6-.14,2.32,2.32,0,0,1,.6,0,1,1,0,0,1,.55.23.91.91,0,0,1,.36.47,1,1,0,0,1,0,.6,1.25,1.25,0,0,1-.34.49,6.26,6.26,0,0,1-.62.43,3.88,3.88,0,0,1-.7.3,3.7,3.7,0,0,1-.57.16c-.19.05-.39.06-.58.1l-.6,0a5.85,5.85,0,0,1-.59,0h-.65c-.21,0-.42-.08-.63-.12a3.64,3.64,0,0,1-.63-.16,4.34,4.34,0,0,1-.62-.16c-.2-.08-.41-.15-.6-.24s-.37-.22-.57-.33-.36-.23-.54-.34l-.53-.37a5.23,5.23,0,0,1-.42-.39c-.13-.13-.21-.31-.34-.47a4.84,4.84,0,0,1-.33-.46,4.07,4.07,0,0,1-.31-.49,4.18,4.18,0,0,1-.21-.53C19.82,125.57,19.71,125.36,19.64,125.11Z"/><path class="cls-2" d="M43.41,128.36s0,0,0,0a1.06,1.06,0,0,1-.24.72,1,1,0,0,1-.69.32s0,0-.08,0a1.15,1.15,0,0,1-.48-.07,1.28,1.28,0,0,1-.38-.29,3,3,0,0,1-.44-.38,1.86,1.86,0,0,1-.29-.48,4.28,4.28,0,0,0-.32-.59v0A3.34,3.34,0,0,0,40,127a3.42,3.42,0,0,0-1.28-.45l-.65,0c-.21,0-.42-.06-.65-.06s-.42,0-.64,0-.43,0-.64,0-.44,0-.65,0a2.09,2.09,0,0,0-.56.14,1.75,1.75,0,0,0-.52.23,1.81,1.81,0,0,0-.42.41,2.77,2.77,0,0,0-.37.44c-.1.17-.13.35-.21.48s-.2.33-.29.47a1.41,1.41,0,0,1-.38.39,1.44,1.44,0,0,1-.49.2,1.34,1.34,0,0,1-.55.08,1.09,1.09,0,0,1-.48-.24.88.88,0,0,1-.23-.46.92.92,0,0,1,0-.52c0-.19.08-.39.14-.57s.15-.35.22-.53.21-.41.3-.64.15-.44.25-.65.19-.37.27-.56l.26-.56c.08-.19.13-.4.21-.6a3.57,3.57,0,0,0,.23-.57c.07-.17.18-.34.25-.5s.13-.37.19-.53.19-.35.28-.51a4.54,4.54,0,0,1,.21-.45A4.62,4.62,0,0,1,34,121c.07-.18.15-.34.23-.52s.16-.34.23-.51.14-.35.22-.53.12-.33.18-.49a3.35,3.35,0,0,0,.21-.47l.26-.53.23-.54a2.5,2.5,0,0,1,.49-.75,1.84,1.84,0,0,1,.53-.36,1.64,1.64,0,0,1,.62-.09,1.32,1.32,0,0,1,.6.18,1.76,1.76,0,0,1,.52.35,4.78,4.78,0,0,1,.36.49,4,4,0,0,1,.24.55l.24.51c.07.17.18.32.25.5s.14.34.23.5a5.64,5.64,0,0,0,.26.55c.08.2.11.39.19.59s.18.36.26.55.15.37.23.57.18.37.24.55.15.39.23.57.14.39.24.58a6,6,0,0,0,.28.57l.24.6c.1.21.21.39.29.6s.13.43.21.62.15.34.23.52.13.34.21.52a6.48,6.48,0,0,1,.33.57c.06.16.14.34.21.52A2.68,2.68,0,0,1,43.41,128.36Zm-4.8-5.46c0-.16-.08-.32-.15-.52a3.93,3.93,0,0,0-.34-.68,3.75,3.75,0,0,0-.41-.63.76.76,0,0,0-.6-.31.73.73,0,0,0-.65.21,3.08,3.08,0,0,0-.34.49l-.31.53c-.09.23-.16.44-.22.65a2.57,2.57,0,0,0-.12.69,1.43,1.43,0,0,0,.2.76,1.3,1.3,0,0,0,.63.44,1.91,1.91,0,0,0,.76.14s0,0,0,0v0a1.82,1.82,0,0,0,.86-.18,1.12,1.12,0,0,0,.54-.39,1.09,1.09,0,0,0,.13-.63A3.49,3.49,0,0,0,38.61,122.9Z"/><path class="cls-2" d="M55.71,128.75a.82.82,0,0,1-.44.5,1.19,1.19,0,0,1-.65.13h-.07v0a2.41,2.41,0,0,1-.6-.08,5.26,5.26,0,0,1-.6-.15,3.69,3.69,0,0,1-.58-.26,4.89,4.89,0,0,1-.57-.27c-.18-.1-.36-.23-.54-.34s-.32-.28-.48-.43a4.65,4.65,0,0,1-.44-.45,3.69,3.69,0,0,1-.83-1c-.11-.18-.2-.39-.29-.57s-.23-.37-.31-.57a3.81,3.81,0,0,1-.15-.44l0,0a1.37,1.37,0,0,0-1.23-.94h0a1.91,1.91,0,0,0-.58.24,1.3,1.3,0,0,0-.46.44,1.69,1.69,0,0,0-.19.6,2.12,2.12,0,0,0-.06.57,4.17,4.17,0,0,0,0,.52s0,0,0,0v.05h0c0,.11,0,.25,0,.37s0,.44,0,.67a5,5,0,0,1,0,.65v.05h0a.09.09,0,0,1,0,0,1.86,1.86,0,0,1-.08.26A1,1,0,0,1,46,129a1,1,0,0,1-.65.2v.06a1.06,1.06,0,0,1-.68-.24,1.09,1.09,0,0,1-.39-.6,3.19,3.19,0,0,1-.1-.63c0-.22-.07-.43-.07-.65v-.72c0-.21.07-.42.07-.65s0-.4,0-.6v-1.3c0-.29,0-.29,0-.58v-.62c0-.26,0-.28,0-.55v0c0-.29,0-.29,0-.58s0-.43,0-.64,0-.4,0-.6,0-.4,0-.62v0c0-.22,0-.41,0-.6s0-.43,0-.62v-.07a5.17,5.17,0,0,1,.07-.55,4.86,4.86,0,0,1,.1-.55,1.92,1.92,0,0,1,.19-.54,1.21,1.21,0,0,1,.39-.39,1.55,1.55,0,0,1,.54-.17s0-.07.08-.07a2.35,2.35,0,0,1,.6-.08c.16,0,.16,0,.31,0l.65,0h.65c.21,0,.42.08.65.1a4.14,4.14,0,0,0,.61,0l.62,0h0a4.38,4.38,0,0,1,.62.08c.19,0,.39,0,.6,0a5.54,5.54,0,0,1,.6.17,3.17,3.17,0,0,1,.73.29,3.44,3.44,0,0,1,.63.44,3.48,3.48,0,0,1,.52.48,3.56,3.56,0,0,1,.36.62,2.66,2.66,0,0,1,.23.67,4.43,4.43,0,0,1,.11.73,2.68,2.68,0,0,1,0,.4c0,.13,0,.26,0,.39a6.14,6.14,0,0,1-.15.72,3.83,3.83,0,0,1-.16.58,2.54,2.54,0,0,1-.29.54,3.6,3.6,0,0,1-.39.47,3.14,3.14,0,0,1-.47.39,3.89,3.89,0,0,1-.54.27,2.42,2.42,0,0,1-.52.23,1.09,1.09,0,0,0-.31.78,1.27,1.27,0,0,0,.15.31c.08.16.15.34.24.5s.18.33.29.49l.36.44a6.58,6.58,0,0,0,.57.5,3.46,3.46,0,0,0,.63.39c.2.11.39.26.62.36a6.66,6.66,0,0,0,.67.26,1.37,1.37,0,0,1,.45.23,1.46,1.46,0,0,1,.41.34A.78.78,0,0,1,55.71,128.75Zm-9.14-8.7a2.44,2.44,0,0,0,0,.27,3.63,3.63,0,0,0,.13.57,1.32,1.32,0,0,0,.31.54,1.58,1.58,0,0,0,.54.35,2.88,2.88,0,0,0,.63.15,3.48,3.48,0,0,0,.65,0,3.14,3.14,0,0,0,.63-.1l.62-.16a3.66,3.66,0,0,0,.42-.26,3.81,3.81,0,0,0,.37-.34,1.7,1.7,0,0,0,.36-.69,1.63,1.63,0,0,0,.07-.5c0-.06,0-.13,0-.19a2,2,0,0,0-.11-.57,2.56,2.56,0,0,0-.39-.42,2,2,0,0,0-.44-.36,2.25,2.25,0,0,0-.54-.26,3.28,3.28,0,0,0-.58-.15,4.21,4.21,0,0,0-.62,0l-.18,0-.36,0a2.41,2.41,0,0,0-.64.21,1.45,1.45,0,0,0-.51.47,1.85,1.85,0,0,0-.31.61,3.6,3.6,0,0,0,0,.56Z"/><path class="cls-2" d="M56.58,120.78c0-.18,0-.38,0-.55v-1.12c0-.2,0-.38,0-.57a5,5,0,0,1,.08-.54l.05-.52c0-.1,0-.1,0-.19a1.2,1.2,0,0,1,.47-.75,1,1,0,0,1,.86-.2,1.05,1.05,0,0,1,.71.51,1.75,1.75,0,0,1,.23.88c0,.19,0,.4,0,.6s0,.4,0,.61,0,.47,0,.72,0,.47,0,.7,0,.48,0,.71,0,.47,0,.71,0,.28,0,.56,0,.27,0,.56v.56c0,.27,0,.27,0,.55s0,.4,0,.61v.61c0,.19,0,.4,0,.6s0,.4,0,.61,0,.41,0,.6v.61a4,4,0,0,1-.1.74,1.07,1.07,0,0,1-.34.65,1,1,0,0,1-.7.28.67.67,0,0,1-.19,0A1,1,0,0,1,57,129a1.12,1.12,0,0,1-.37-.55,4.51,4.51,0,0,1-.05-.65,6.16,6.16,0,0,1,0-.64c0-.23,0-.44,0-.66s0-.44,0-.65v-1.32c0-.23,0-.45,0-.66s0-.44,0-.67,0-.36,0-.73,0-.37,0-.75S56.57,121.25,56.58,120.78Z"/><path class="cls-2" d="M73,118.41v.65c0,.21,0,.42,0,.63V121c0,.21,0,.43,0,.65s0,.42,0,.63,0,.42,0,.63,0,.42,0,.63,0,.44,0,.65,0,.43,0,.64,0,.42,0,.63v.63c0,.21,0,.43,0,.65s0,.43,0,.64a6.1,6.1,0,0,1-.08.76v.23a2.37,2.37,0,0,1-.18.55,1.34,1.34,0,0,1-.41.41,1.8,1.8,0,0,1-.55.21,3.62,3.62,0,0,1-.72.06,3.37,3.37,0,0,1-.89-.14,1.62,1.62,0,0,1-.5-.22,2.25,2.25,0,0,1-.46-.32,2.08,2.08,0,0,1-.37-.41c-.1-.16-.18-.32-.28-.47l-.29-.47c-.1-.14-.21-.29-.31-.45s-.14-.33-.24-.49-.21-.29-.31-.45-.21-.28-.31-.44-.16-.34-.26-.51-.21-.32-.32-.48l-.29-.49-.3-.5c-.09-.18-.21-.35-.3-.51s-.25-.32-.35-.48-.21-.35-.32-.51l-.32-.48a4.68,4.68,0,0,0-.49-.61c-.05,0-.1,0-.15,0a.69.69,0,0,0-.63-.22.68.68,0,0,0-.44.49c-.06.21-.11.41-.16.6s-.1.41-.12.6,0,.44,0,.64,0,.39,0,.58v.6c0,.2,0,.39,0,.6s0,.39,0,.59v1.34c0,.26,0,.51,0,.77v.08a2.35,2.35,0,0,1-.11.73,1.09,1.09,0,0,1-.36.6,1,1,0,0,1-.67.2,1.15,1.15,0,0,1-.66-.18,1.29,1.29,0,0,1-.38-.59,1,1,0,0,1,0-.22v-.07a3.37,3.37,0,0,1-.12-.55c0-.18,0-.36,0-.55s0-.43,0-.64v-.63c0-.21,0-.41,0-.62s0-.42,0-.63,0-.42,0-.63,0-.3,0-.59,0-.31,0-.6v-.52c0-.28,0-.28,0-.53s0-.44,0-.65v-.65c0-.23,0-.44,0-.67s0-.44,0-.65,0-.44,0-.66.07-.39.09-.59a3.69,3.69,0,0,1,0-.58,1.43,1.43,0,0,1,.41-.67,1.36,1.36,0,0,1,.65-.42,4.74,4.74,0,0,1,.67-.07,3,3,0,0,1,.66,0,5.07,5.07,0,0,1,.68.11,2.35,2.35,0,0,1,.54.29,1.76,1.76,0,0,1,.42.44c.13.16.26.31.37.46s.17.37.28.53.24.39.36.6.26.39.37.59l.36.6c.11.19.26.35.37.53s.2.38.31.55l.16.28c.12.18.23.36.34.55s.25.34.36.54.24.34.36.53l.34.54c.1.16.21.31.31.45s.21.31.32.44a1.27,1.27,0,0,0,.62.36.45.45,0,0,0,.45,0,1.13,1.13,0,0,0,.42-.79.75.75,0,0,1,0-.22c0-.22.07-.43.08-.63s0-.42,0-.63,0-.46,0-.68,0-.47,0-.7,0-.46,0-.68,0-.46,0-.69,0-.45,0-.68c0-.44,0-.44,0-.86a5.05,5.05,0,0,1,0-.52,2.16,2.16,0,0,1,.15-.5,1,1,0,0,1,.29-.42,1.06,1.06,0,0,1,.47-.21,1,1,0,0,1,.5.08,1,1,0,0,1,.44.24,1.07,1.07,0,0,1,.33.65l0,.28A5.77,5.77,0,0,1,73,118.41Z"/><path class="cls-2" d="M86.09,128.36s0,0,0,0a1.07,1.07,0,0,1-.25.72.94.94,0,0,1-.68.32s0,0-.08,0a1.19,1.19,0,0,1-.49-.07c-.15,0-.24-.18-.37-.29a3,3,0,0,1-.44-.38,1.86,1.86,0,0,1-.29-.48,5.82,5.82,0,0,0-.33-.59v0a2.88,2.88,0,0,0-.44-.54,2.14,2.14,0,0,0-.61-.29,2.43,2.43,0,0,0-.67-.16l-.65,0c-.21,0-.42-.06-.65-.06s-.42,0-.63,0-.44,0-.65,0-.44,0-.65,0a2.12,2.12,0,0,0-.55.14,1.64,1.64,0,0,0-.52.23,1.81,1.81,0,0,0-.42.41,2.36,2.36,0,0,0-.38.44c-.09.17-.13.35-.21.48a4.83,4.83,0,0,1-.29.47,1.37,1.37,0,0,1-.37.39,1.44,1.44,0,0,1-.49.2,1.36,1.36,0,0,1-.55.08,1.18,1.18,0,0,1-.49-.24,1,1,0,0,1-.23-.46.92.92,0,0,1,0-.52,5.29,5.29,0,0,1,.15-.57c.06-.18.15-.35.21-.53s.21-.41.31-.64.14-.44.24-.65.2-.37.28-.56l.26-.56c.08-.19.13-.4.21-.6s.16-.37.23-.57.17-.34.24-.5.13-.37.19-.53.2-.35.28-.51.13-.31.21-.45.12-.31.2-.47.14-.34.22-.52a3.32,3.32,0,0,0,.23-.51c.08-.17.15-.35.23-.53s.11-.33.18-.49a5.11,5.11,0,0,0,.21-.47L78,118c.08-.18.14-.36.23-.54a2.68,2.68,0,0,1,.48-.75,1.89,1.89,0,0,1,.54-.36,1.58,1.58,0,0,1,.62-.09,1.36,1.36,0,0,1,.6.18,1.9,1.9,0,0,1,.52.35,3.59,3.59,0,0,1,.35.49,5.65,5.65,0,0,1,.25.55l.24.51c.06.17.18.32.24.5s.15.34.23.5.18.38.26.55.11.39.19.59.18.36.26.55.15.37.23.57.18.37.25.55.14.39.22.57.15.39.25.58a5.94,5.94,0,0,0,.27.57l.25.6c.09.21.21.39.29.6s.13.43.21.62.15.34.23.52.13.34.21.52a6.38,6.38,0,0,1,.32.57c.07.16.15.34.21.52A3.61,3.61,0,0,1,86.09,128.36Zm-4.81-5.46a5.19,5.19,0,0,0-.14-.52,4.86,4.86,0,0,0-.35-.68,4.4,4.4,0,0,0-.4-.63.79.79,0,0,0-.6-.31.73.73,0,0,0-.65.21,2.54,2.54,0,0,0-.34.49c-.12.18-.21.36-.31.53s-.16.44-.23.65a3,3,0,0,0-.11.69,1.43,1.43,0,0,0,.19.76,1.29,1.29,0,0,0,.64.44,1.88,1.88,0,0,0,.76.14s0,0,0,0v0a1.82,1.82,0,0,0,.86-.18,1,1,0,0,0,.53-.39,1,1,0,0,0,.13-.63A3.49,3.49,0,0,0,81.28,122.9Z"/><path class="cls-2" d="M92.6,129.42a1.16,1.16,0,0,1-.52-.33,1.31,1.31,0,0,1-.34-.52,1.74,1.74,0,0,1-.07-.62c0-.19,0-.37,0-.55s0-.32,0-.65,0-.32,0-.65,0-.34,0-.66v-.65c0-.33,0-.33,0-.65s0-.34,0-.67,0-.32,0-.65v-.65c0-.32,0-.32,0-.65v-1.2c0-.19,0-.39,0-.58s0-.41,0-.6,0-.39,0-.59,0-.4,0-.6,0-.32.06-.52a1.52,1.52,0,0,1,.12-.5.87.87,0,0,1,.34-.37.83.83,0,0,1,.43-.23,1.25,1.25,0,0,1,.51,0,1.08,1.08,0,0,1,.45.26,1.3,1.3,0,0,1,.36.72l0,.65a4.74,4.74,0,0,1,0,.65v.6c0,.21,0,.4,0,.6s-.05.41-.05.6,0,.41,0,.6,0,.39,0,.6v.6c0,.2,0,.39,0,.6s0,.39,0,.59,0,.29,0,.58v.59c0,.29,0,.29,0,.58s0,.33,0,.49a2.81,2.81,0,0,0,0,.49,1.63,1.63,0,0,0,.25.53,1.6,1.6,0,0,0,.43.39,1.65,1.65,0,0,0,.54.21,2.28,2.28,0,0,0,.68.13c.26,0,.26,0,.5,0s.33,0,.49,0l.49,0a2.17,2.17,0,0,1,.57.06,4.86,4.86,0,0,1,.55.07,1.54,1.54,0,0,1,.44.16.92.92,0,0,1,.44.63,1,1,0,0,1-.2.76,1.11,1.11,0,0,1-.7.38,3.88,3.88,0,0,1-.73.08c-.19,0-.4,0-.62,0s-.42-.05-.63-.05-.42.05-.62.05h-.63c-.29,0-.58,0-.89,0s-.44,0-.88,0c-.11,0-.22-.05-.34-.05A2.16,2.16,0,0,1,92.6,129.42Z"/><path class="cls-2" d="M100.88,129.32a1.39,1.39,0,0,1-.5-.52,1.67,1.67,0,0,1-.24-.67,3.31,3.31,0,0,1,0-.42c0-.21-.07-.42-.07-.65s0-.44,0-.65,0-.44,0-.67,0-.43,0-.64,0-.44,0-.65-.07-.44-.07-.67.05-.44.05-.65v-.65c0-.23,0-.44,0-.66s0-.44,0-.65,0-.44,0-.65v-.67c0-.21,0-.44,0-.65s0-.44,0-.65,0-.44,0-.66a4.26,4.26,0,0,1,0-.64,1.41,1.41,0,0,1,.34-.69,1.35,1.35,0,0,1,.7-.33c.16,0,.34-.08.53-.1a3.49,3.49,0,0,1,.56,0h0c.21,0,.43,0,.62,0l.63,0,.64,0c.19,0,.4,0,.61,0l.64,0h.61c.22,0,.43,0,.64,0a3.87,3.87,0,0,1,.48,0,2.63,2.63,0,0,1,.49,0,1.8,1.8,0,0,1,.46.21,1.07,1.07,0,0,1,.4.34.88.88,0,0,1,.13.52,1,1,0,0,1-.21.46,1,1,0,0,1-.37.32,1.84,1.84,0,0,1-.86.15c-.2,0-.2.06-.38.06s-.35-.05-.53-.05l-.52,0h-.54a5.23,5.23,0,0,0-.68,0c-.23,0-.44.07-.68.1a2.3,2.3,0,0,0-.7.21,1.36,1.36,0,0,0-.49.55,1.85,1.85,0,0,0-.14.72s0,.11,0,.16,0,.16,0,.24a2,2,0,0,0,.43,1,1.31,1.31,0,0,0,.48.27,2.93,2.93,0,0,0,.68.15,5.68,5.68,0,0,0,.72,0l.57,0h.57l.55,0s0,0,.06,0a4.3,4.3,0,0,1,.46.07,1.94,1.94,0,0,1,.53.16,1.09,1.09,0,0,1,.44.33,1,1,0,0,1,.2.52.83.83,0,0,1-.2.48,1.13,1.13,0,0,1-.4.31,2.34,2.34,0,0,1-.49.15,3.07,3.07,0,0,1-.52.06c-.1,0-.1,0-.2,0s-.43,0-.66,0-.46,0-.68,0a4,4,0,0,0-.6,0c-.2,0-.39,0-.61,0a2.49,2.49,0,0,0-.6.2,1.29,1.29,0,0,0-.48.4,1.82,1.82,0,0,0-.3.59c0,.18,0,.4,0,.65a2,2,0,0,0,.15.68,1.36,1.36,0,0,0,.34.57,1.91,1.91,0,0,0,.57.36,2.82,2.82,0,0,0,.92.14l.17,0c.29,0,.56,0,.86,0s.47,0,.69,0h.72l.55,0c.18,0,.36.07.55.1a1.62,1.62,0,0,1,.42.15,1,1,0,0,1,.59.69,1,1,0,0,1-.36.85,1.17,1.17,0,0,1-.65.29l-.47.05h-.18l-.09,0h0c-.32,0-.32,0-.65,0s-.32,0-.66,0-.33,0-.65,0-.33,0-.65,0H104l-.68,0c-.2,0-.39,0-.59,0l-.6,0s0,0,0,0h-.52A1.9,1.9,0,0,1,100.88,129.32Z"/><path class="cls-2" d="M110.32,129.32a1.41,1.41,0,0,1-.51-.52,1.67,1.67,0,0,1-.24-.67,3.31,3.31,0,0,1,0-.42c0-.21-.06-.42-.06-.65s0-.44,0-.65,0-.44,0-.67,0-.43,0-.64,0-.44,0-.65-.06-.44-.06-.67,0-.44,0-.65v-.65c0-.23,0-.44,0-.66s0-.44,0-.65,0-.44,0-.65v-.67c0-.21,0-.44,0-.65s0-.44,0-.65,0-.44,0-.66a3.26,3.26,0,0,1,0-.64,1.33,1.33,0,0,1,.34-.69,1.35,1.35,0,0,1,.69-.33c.17,0,.35-.08.54-.1a3.37,3.37,0,0,1,.55,0h0c.21,0,.42,0,.62,0l.63,0,.63,0c.2,0,.41,0,.62,0l.63,0h.62c.21,0,.42,0,.63,0a4,4,0,0,1,.49,0,2.81,2.81,0,0,1,.49,0,1.62,1.62,0,0,1,.45.21,1.11,1.11,0,0,1,.41.34,1.05,1.05,0,0,1,.13.52,1.15,1.15,0,0,1-.22.46,1,1,0,0,1-.37.32,1.84,1.84,0,0,1-.86.15c-.19,0-.19.06-.37.06s-.36-.05-.54-.05l-.52,0h-.53a5.31,5.31,0,0,0-.69,0c-.22,0-.43.07-.68.1a2.39,2.39,0,0,0-.7.21,1.34,1.34,0,0,0-.48.55,1.69,1.69,0,0,0-.15.72s0,.11,0,.16,0,.16,0,.24a1.66,1.66,0,0,0,.14.52,2,2,0,0,0,.28.46,1.36,1.36,0,0,0,.49.27,2.93,2.93,0,0,0,.68.15,5.53,5.53,0,0,0,.71,0l.57,0h.57l.55,0s0,0,.07,0a4.14,4.14,0,0,1,.45.07,2,2,0,0,1,.54.16,1.24,1.24,0,0,1,.44.33,1.06,1.06,0,0,1,.19.52.89.89,0,0,1-.19.48,1.17,1.17,0,0,1-.41.31,2.34,2.34,0,0,1-.49.15,3.07,3.07,0,0,1-.52.06c-.09,0-.09,0-.19,0s-.44,0-.67,0-.45,0-.68,0a4,4,0,0,0-.6,0c-.2,0-.39,0-.6,0a2.22,2.22,0,0,0-.6.2,1.41,1.41,0,0,0-.49.4,1.63,1.63,0,0,0-.29.59,6,6,0,0,0,0,.65,2.17,2.17,0,0,0,.14.68,1.36,1.36,0,0,0,.34.57,2.05,2.05,0,0,0,.57.36,2.84,2.84,0,0,0,.93.14l.16,0c.29,0,.57,0,.86,0s.47,0,.7,0h.71l.55,0c.18,0,.36.07.56.1a1.94,1.94,0,0,1,.42.15,1,1,0,0,1,.58.69,1,1,0,0,1-.35.85,1.21,1.21,0,0,1-.65.29l-.47.05h-.18l-.1,0h0c-.33,0-.33,0-.65,0s-.33,0-.67,0-.32,0-.65,0-.32,0-.65,0h-.65l-.68,0c-.19,0-.39,0-.58,0l-.6,0s0,0,0,0H111A1.85,1.85,0,0,1,110.32,129.32Z"/><path class="cls-2" d="M122.5,127.87a1.44,1.44,0,1,1-2.88,0,1.44,1.44,0,0,1,2.88,0Z"/></svg>