<svg version="1.1" id="Layer_1" xmlns="http://www.w3.org/2000/svg" xmlns:xlink="http://www.w3.org/1999/xlink" x="0px" y="0px"
	 viewBox="0 0 195.8 275.1" style="enable-background:new 0 0 195.8 275.1;" xml:space="preserve">
<g id="pink">
	<path class="st0" d="M175.1,54.3c-1.5-1.2-3.1-2.2-4.7-3.3c-5.9-4.3-12.5-7.7-18.8-11.5c-2-1.1-3.9-2.2-5.7-3.6
		c-1-0.9-2.3-1.5-3.7-1.8c-4.6-0.7-9.1-2-13.3-3.8c-1.5-0.7-3.3-0.7-4.8,0.1c-1.6,0.7-3.2,1.3-4.9,1.9c-8,2.7-15.9,5.8-23.6,9.2
		c-1.2,0.5-2.4,0.8-3.6,1.2c-3.2,1.4-6.4,2.8-9.6,4.3c-2.6,1.1-5.8,2.3-8.2,3.7c-3.4,1.8-9.9,4.1-15.5,5.8l10.4,13.4l0.1-0.3
		l53.3,18l-18.8-5.6l-35.3-9.5v-0.1L67,71.9L55.7,57.3c-2,0.6-4,1.1-6.1,1.4c-3.6-0.4-7.2-0.4-10.8-0.2c-2,0.1-3.9,0.6-5.7,0.8
		c-0.1,0.3-0.2,0.7-0.3,1c-0.9,4.4-1.6,8.8-2.6,13.1c-0.6,2.7-1.5,5.4-2.2,8.1c-1.8,7.5-3.4,15.1-5.1,22.6c-0.4,1.8-1,3.5-1.3,5.3
		c-0.8,4.2-1.6,8.2,1.3,12.3c3.8,5.2,6.9,10.9,10.3,16.4c0.8,1.4,1.8,2.7,2.6,4.1c0.9,1.3,1.6,2.8,2.1,4.3c0.5,1.6,2.1,2.2,2.6,3.7
		c0.4,0.9,0.9,1.7,1.4,2.4c1.6,2.6,3.3,5.3,5,7.9c2,3.2,3.9,6.4,5.9,9.6c1.8,2.9,3.7,5.7,5.5,8.6c2,3.3,4,6.7,6,10
		c3,4.8,6,9.4,9,14.2c0.6,1.1,2.8,4.6,3.3,5.3c3.6,5.7,7.1,11.4,10.6,17.1c1.5,2.5,2.9,5.2,4.5,7.6c2.5,3.9,5.2,7.7,7.8,11.5
		c0.3,0.4,0.7,0.7,1.1,1c0.1-0.1,3,1.5,3.9,0.5c0.7-0.8,1.2-1.7,1.7-2.6c2.9-5.4,5.6-11,8.6-16.4c4.7-8.8,8.9-17.8,13.3-26.8
		c3.8-7.7,8.2-15.2,12.3-22.8c1.5-2.7,3.2-5.4,4.6-8.1c2.7-5.3,5.3-10.8,8-16.1c3.7-7.1,7.6-14.2,11.4-21.3
		c3.4-6.4,6.8-12.8,10.2-19.2c0.7-1.3,1-2.7,1-4.1c0.1-4.7,0.3-9.4,0.4-14.1c0.2-7.1,0.4-14.2,0.6-21.3c0.1-4.9,0.1-9.8,0.4-14.6
		C177.2,56.9,176.5,55.3,175.1,54.3z M80.2,177.6L43.4,90.2l1.1-7.6l36.9,94.4L80.2,177.6z M91.7,205.1l-4.8-10.9l2.9-51.7l3,15.2
		L91.7,205.1z"/>
</g>
<g id="yellow">
	<polygon class="st1" points="55.9,109.5 64.7,103.3 74.1,146.6 	"/>
	<polygon class="st1" points="24,119.1 27.6,116.8 47.1,157.1 48.8,162.6 23.1,120.9 	"/>
	<polygon class="st1" points="33.9,109.7 41.8,101.4 51.9,113.6 102.2,230.1 102.2,245.2 	"/>
	<polygon class="st1" points="66.2,101.4 76.1,91.7 78.2,119.4 74.1,101.4 73.1,104.4 84.6,160.9 	"/>
	<polygon class="st1" points="51.6,109.5 55.9,106.1 55.9,87.4 51.6,90.9 	"/>
	<polygon class="st1" points="58.7,103.3 63.4,99.2 63.4,87.9 59.8,87.4 	"/>
	<polygon class="st1" points="66.2,97.3 70.3,93.9 70.3,89.2 74.1,89.2 74.1,91.7 85.3,89.2 91.1,91.7 95.2,83.8 75.4,87.4 
		66.2,87.4 	"/>
	<polygon class="st1" points="76.9,90.6 86.4,136.5 83.8,98.4 79.9,88.9 	"/>
	<polygon class="st1" points="147.3,39.5 174.2,56.4 172.7,100.3 	"/>
	<polygon class="st1" points="106.1,39.5 126.4,48.9 129.2,57.2 133.1,98.4 138.9,99.6 140.8,107.2 145.5,100.3 131.4,32.8 
		125.8,31.1 	"/>
	<polygon class="st1" points="108.4,191.8 113.2,221.6 110.8,227.4 105.9,200.2 107.4,190.5 	"/>
	<polygon class="st1" points="108,188.6 110.2,173.3 111.9,177.9 115.9,211.3 	"/>
	<polygon class="st1" points="120.6,203.1 130.5,144.4 136.3,103.3 128.4,92.8 128.4,101.4 132.4,107.2 127.3,125 	"/>
	<polygon class="st1" points="128.4,177.4 150.4,130.1 137.8,173.3 172.1,112.7 165.2,108.2 145.5,116.8 141,112.7 138.8,115.7 	"/>
	<polygon class="st1" points="87.7,109.5 95.2,133.1 102.2,160.9 102.2,220.7 92.4,146.6 87.7,126.3 	"/>
	<polygon class="st1" points="84.6,90.6 87.7,105.4 103.7,152.2 104.6,130.1 	"/>
	<polygon class="st1" points="88.4,90.6 108,132.2 103.5,212.6 111.9,117.8 115.9,156.6 122.6,139.7 123.8,87.4 132,76.3 
		131.1,53.1 123.9,51.9 103.7,39.6 88.4,45 115.9,60.2 106.1,58.1 101.1,73.3 102.2,80.1 98.4,90.6 97.9,91.7 	"/>
	<polygon class="st1" points="36.9,101.4 44.2,85.5 33.9,60.4 31.5,75.9 	"/>
	<polygon class="st1" points="37.9,60.4 45.6,83.8 57,57.9 38.8,58.7 	"/>
	<polygon class="st1" points="77.8,66.4 90.4,69.2 89.4,72.6 97.5,72.6 103.1,55.7 86.4,49.5 	"/>
	<polygon class="st1" points="71.8,64.9 75.4,64.9 78.6,55.9 71.8,57.9 	"/>
	<polygon class="st1" points="43.3,98.4 48.8,104.8 48.8,92.8 	"/>
	<polygon class="st1" points="76.1,83.8 87.7,80.9 87.7,78.9 75.2,82.3 	"/>
	<polygon class="st1" points="75.4,78.9 84.6,77.2 83.1,76.3 	"/>
	<polygon class="st1" points="47.4,91.7 61,61 68.1,68.1 52.9,87.4 48.8,92.8 	"/>
</g>
</svg>
