<?xml version="1.0" encoding="utf-8"?>
<!-- Generator: Adobe Illustrator 24.0.3, SVG Export Plug-In . SVG Version: 6.00 Build 0)  -->
<svg version="1.1" id="black" xmlns="http://www.w3.org/2000/svg" xmlns:xlink="http://www.w3.org/1999/xlink" x="0px" y="0px"
	 viewBox="0 0 684.9 867" style="enable-background:new 0 0 684.9 867;" xml:space="preserve">
<path d="M339.6,839.5c-0.7-1.2-1-1.9-1.5-2.6c-5.6-7.8-11.1-15.6-16.9-23.3c-12.1-15.9-24.3-31.8-36.4-47.7
	c-13.4-17.6-26.7-35.2-40-52.8c-20.7-27.3-41.3-54.6-62-81.9c-10.4-13.8-21-27.5-31.4-41.2c-11.7-15.4-23.5-30.7-34.8-46.4
	c-15.8-21.9-31.1-44.3-46.7-66.3c-2.8-3.9-3.6-8.2-4.2-12.7c-2.5-17.5-5-35-7.5-52.5c-1-7-1.9-14.1-2.9-21.1
	c-0.2-1.4,0.1-2.4,0.9-3.5c9-12,17.9-24,26.9-35.9c15.3-20.1,30.7-40.1,46.1-60.2c15.8-20.6,31.5-41.3,47.3-62
	c21.9-28.6,43.8-57.1,65.7-85.7C261.1,119,280,94.3,299,69.6c14.5-19.2,29.3-38.4,44-57.6c0.7-0.9,1.4-1.7,2.2-2.8
	c0.8,1,1.4,1.8,2,2.6c18.6,25.3,37.2,50.7,55.8,76c10.3,14.1,20.5,28.2,30.8,42.3c22.5,30.8,44.9,61.7,67.4,92.5
	c17.1,23.5,34.3,46.8,51.4,70.3c23.2,31.8,46.5,63.7,69.7,95.6c2.3,3.1,4.5,6.2,6.6,9.4c0.5,0.7,0.7,1.8,0.7,2.7
	c-0.6,12.6-1.3,25.2-1.9,37.9c-0.4,6.6-0.7,13.3-1.2,19.9c-0.1,0.9-0.3,1.9-0.7,2.7c-8.1,14.8-16.2,29.6-24.4,44.4
	c-0.8,1.4-1.6,2.7-2.6,4c-13.8,17.9-27.6,35.7-41.4,53.5c-15.4,20-30.9,40-46.3,60.1c-23.6,30.7-47.2,61.3-70.8,92
	c-18.3,23.8-36.6,47.7-54.9,71.6c-9.7,12.6-19.4,25.3-29,37.9c-1.4,1.8-2.8,3.7-4.2,5.6c-0.4,0.5-0.8,0.9-1.5,1.7
	c-0.7-1.3-1.4-2.4-1.9-3.5c-3.8-7.8-7.4-15.8-11.4-23.5c-8.7-16.7-15.4-34.3-22.7-51.6c-21.4-50.3-42.6-100.8-63.9-151.2
	c-9.9-23.5-19.9-47-29.7-70.5c-0.9-2.2-2.2-4.2-3.8-6c-10.7-11.7-21.2-23.5-31.9-35.2c-6-6.6-11.9-13.2-17.9-19.7
	c-1-1.1-2-2-3.2-2.9c-2-1.6-3.3-1.5-5.5-0.1c-1,0.7-1.9,1.5-2.8,2.3c-9.9,9.3-19.8,18.6-29.7,28c-2.6,2.4-5.1,4.8-7.7,7.3
	c-1.8,1.8-1.8,1.9-0.3,4c6.1,8.8,12.3,17.5,18.4,26.4c13.8,20.1,27.5,40.3,41.3,60.4c16.2,23.6,32.5,47.1,48.8,70.7
	c19.8,28.7,39.4,57.5,59.2,86.3c11.9,17.3,23.8,34.5,35.7,51.7c0.5,0.7,0.9,1.3,1.3,2c2.6,4,5.4,7.7,9.1,10.8
	c1.3,1.1,2.4,2.5,3.6,3.8c3.8,4,7.5,8.1,11.3,12.1c1.7,1.8,1.6,1.8,0.2,3.7c-0.5,0.6,0.3,2-2,3.1
	C340.7,841.6,340.7,840.5,339.6,839.5z M432.4,466.8c0.2-0.1,0.3-0.2,0.5-0.3c-0.2-1.1-0.3-2.3-0.5-3.4c-5.7-28.8-11.3-57.6-17-86.4
	c-7.1-36.1-14.3-72.2-21.4-108.3c-5.4-27.1-10.8-54.1-16.2-81.2c-4.3-21.7-8.7-43.4-13-65.2c-3.5-17.5-7.1-35-10.4-52.5
	c-0.8-4.3-3.1-7.2-6.7-9.3c-0.5-0.3-1-1-1.1-1.6c-0.3-1.6-0.3-3.2-0.4-4.8c-0.2-2.1-0.4-2.4-2.5-2.9c-0.6-0.2-1.3-0.3-1.9-0.3
	c-2-0.1-2.6,0.3-3,2.3c-0.9,5.2-1.8,10.4-2.6,15.6c-0.5,3.4-0.7,6.8-1.1,10.3c-1.5,12.3-3,24.6-4.4,36.9c-1,8.3-1.8,16.5-2.8,24.8
	c-1.7,14.5-3.5,29-5.2,43.6c-0.7,5.6-1.3,11.3-1.9,16.9c-1.2,9.8-2.4,19.5-3.5,29.3c-0.9,8.1-1.8,16.2-2.7,24.3
	c-1.4,12.1-2.9,24.3-4.3,36.4c-0.9,7.9-1.8,15.9-2.7,23.8c-1.7,14.4-3.4,28.7-5.1,43.1c-0.9,7.9-1.8,15.9-2.7,23.8
	c-1.4,12.2-2.9,24.4-4.4,36.7c-1,8.5-2,17-3,25.5c-0.7,5.9-1.3,11.8-1.9,17.6c-0.2,2-0.2,2.2,1.9,2.6c4.8,0.9,9.6,1.8,14.4,2.4
	s9.6,0.8,14.3,1.3c7.4,0.7,14.8,1.8,22.2,2.3c10.6,0.6,21.2,1,31.9,1.2c8.3,0.1,16.6-0.1,24.9-0.5c8-0.3,15.9-1.2,24.1-2.9
	c-0.7-1-1.2-1.8-1.9-2.5c-1-1-2-1.8-3.1-2.7c-12.3-10.7-24.5-21.3-36.7-32c-4.1-3.6-8.6-6.7-11.9-11c-0.9-1.1-2.2-2.4-2.2-3.6
	c0-2.6,0.6-5.1,1.6-8c10.6,10,20.9,19.8,31.3,29.5C411.5,447.4,421.8,457.3,432.4,466.8z M374.3,77.5c-0.3,0.1-0.5,0.2-0.8,0.3
	c0.3,0.8,0.5,1.6,0.9,2.3c4.9,10.3,9.7,20.5,14.6,30.8c11.8,24.7,23.5,49.4,35.3,74.1c13.5,28,27.1,56,40.5,84
	c9.3,19.4,18.5,38.8,27.8,58.2c10.2,21.3,20.6,42.5,30.8,63.7c5.9,12.2,11.7,24.5,17.6,36.8c5.2,10.8,10.3,21.6,15.5,32.5
	c0.3,0.7,0.7,1.5,0.7,2.2c-0.1,2.5-0.1,5.1-0.5,7.6s0.6,4,2.4,5.5c9.6,8.3,19.2,16.7,28.8,25c0.5,0.4,1.1,0.8,1.8,1.3
	c1-1.4,1.9-2.6,2.7-3.9c5.8-8.9,11.5-17.9,17.3-26.8c0.8-1.3,1.4-2.8,2.2-4.2c0.2-0.4,0.8-0.5,1.1-0.7c-0.1-2.9-0.2-5.6-0.3-8.7
	c-2.4,0.1-4.5,0.1-6.6,0.2c-9.7,0.3-19.3,0.6-29,1c-4.5,0.2-4.5,0.2-7.3-3.4c-1.7-2.3-3.5-4.5-5.3-6.9c4.2-5,8.2-10,12.3-14.9
	c9.7-11.7,19.4-23.4,29-35.2c1.6-1.9,1.6-2.4,0.1-4.4c-2.9-4-5.9-8-8.8-12c-12.5-17.3-25.1-34.6-37.6-51.9
	c-20-27.6-39.9-55.2-59.9-82.8c-20.6-28.4-41.2-56.7-61.8-85c-12.2-16.8-24.6-33.6-36.9-50.3c-6.8-9.2-13.7-18.4-20.5-27.5
	C378.3,82.2,376.2,79.9,374.3,77.5z M279.6,464.9c0.3-1,0.5-1.5,0.6-2.1c0.9-6.3,1.9-12.6,2.8-19c1.1-8.2,2.2-16.3,3.3-24.5
	c1.5-11.2,3.2-22.5,4.7-33.7c1.3-9.4,2.6-18.9,3.9-28.3c1.9-13.5,3.7-27.1,5.6-40.6c1-7.4,2-14.9,3-22.3c1.6-11.2,3.1-22.5,4.7-33.7
	c1.3-9.8,2.6-19.6,4-29.5c1.8-13.5,3.7-27.1,5.6-40.6c0.8-5.7,1.5-11.4,2.3-17.1c1.4-9.9,2.7-19.8,4.1-29.7
	c0.8-6.1,1.6-12.2,2.5-18.3c1.6-11.3,3.1-22.6,4.7-34c0.9-6.6,1.8-13.1,2.7-19.7c0.2-1.8,0.5-3.6,0.6-5.5c0.1-1.3-0.4-1.8-1.6-1.9
	c-1.6-0.2-2.7,0.4-3.4,2.1c-0.7,1.7-1.2,3.5-1.8,5.2c-5.8,19.1-11.5,38.3-17.2,57.4c-10.5,35.5-21,71-31.5,106.5
	c-6.9,23.1-13.7,46.3-20.5,69.5c-9.6,32.5-19.1,65-28.9,97.5c-1.1,3.7-0.5,6.3,2.1,8.8c0.8,0.8,1.6,1.6,2.4,2.3
	c0.4,0.4,0.8,0.7,1.2,1.1c1.1,1.3,2,2.7,3.1,3.9c7.2,8.1,14.4,16.3,21.7,24.4c5.8,6.5,11.5,13.1,17.3,19.6
	C277.9,463.4,278.7,464,279.6,464.9z M354.5,541.7c-0.4-0.5-0.7-0.9-1-1.2c-3.8-3.2-7.6-6.4-11.4-9.6
	c-13.7-11.4-27.5-22.7-41.3-34.1c-4.8-3.9-9.6-7.8-14.4-11.6c-2-1.6-3.2-1.5-5.3-0.3c-1.9,1-1.2,2.5-0.9,4c3,16.3,6,32.5,9,48.8
	c3.9,21.1,7.8,42.3,11.8,63.4c4.5,24,9,48.1,13.5,72.1c6.1,32.4,12.2,64.9,18.2,97.3c0.7,3.9,1.2,7.9,1.8,11.8
	c0.1,0.9,0.2,1.9,0.6,2.8c4.3,10,8.6,20,12.9,29.9c0.2,0.5,0.5,0.9,0.8,1.3c0.2,0,0.3-0.1,0.5-0.1c0-1.9,0.1-3.7,0.1-5.6
	c0.1-9.6,0.2-19.2,0.3-28.8c0.1-14.8,0.2-29.6,0.3-44.4c0.1-8.6,0.1-17.3,0.2-25.9c0.1-7.7,0.2-15.3,0.3-23
	c0.1-14.4,0.2-28.8,0.3-43.2c0.1-12.5,0.2-24.9,0.3-37.4c0.1-13.6,0.3-27.2,0.4-40.8c0.1-7.3,0.1-14.6,0.1-21.8c0-1,0.1-2,0.1-2.9
	C352.8,542.2,353.6,542,354.5,541.7z M364.9,793.1c0.2,0,0.4,0.1,0.6,0.1c0.3-0.6,0.6-1.3,0.9-1.9c6.2-13.6,12.4-27.2,18.6-40.8
	c19.6-43.3,39.2-86.5,58.8-129.8c11.4-25.2,22.9-50.4,34.3-75.6c1.5-3.3,3-6.7,4.6-10c0.7-1.4,0.7-2.6-0.5-3.7
	c-0.3-0.3-0.5-0.6-0.8-0.9c-14.2-16.1-28.3-32.2-42.5-48.3c-1.2-1.3-2.3-2.6-3.6-3.9c-1.6-1.6-2.8-1.3-3.3,0.9
	c-0.1,0.4-0.2,0.8-0.3,1.2c-1.4,6.5-2.7,13-4.1,19.5c-2.5,11.8-5.1,23.6-7.6,35.4c-2.9,13.7-5.8,27.4-8.7,41
	c-3.6,16.7-7.2,33.4-10.8,50.2c-2.8,12.9-5.5,25.8-8.3,38.7c-2.7,12.8-5.5,25.6-8.2,38.5c-2.2,10.5-4.3,21.1-6.6,31.7
	c-1.2,5.6-2.6,11.2-3.8,16.8c-2.4,10.9-4.7,21.7-7,32.6C366.1,787.5,365.5,790.3,364.9,793.1z M311.4,109.8
	c-0.1-0.1-0.3-0.1-0.4-0.2c-0.5,1-0.9,1.9-1.4,2.9c-2.2,4.2-4.5,8.3-6.4,12.6c-4.7,10.5-9.2,21.1-13.6,31.7
	c-8.1,19.4-16.2,38.8-24.3,58.2c-4.3,10.4-8.7,20.8-13,31.2c-3.9,9.4-7.9,18.9-11.8,28.3c-7.4,17.8-14.7,35.7-22,53.5
	c-5.8,14-11.7,28.1-17.5,42.1c-4.7,11.4-9.4,22.8-14.1,34.2c-6.1,14.8-12.1,29.6-18.2,44.4c-0.6,1.5-1.1,3-1.6,4.5
	c-0.1,0.5,0,1,0,1.7c2.1-0.8,3.5-2.2,4.9-3.4c7.1-5.9,14.2-11.9,21.3-17.9c8.5-7.2,17-14.3,25.5-21.5c1.1-0.9,1.8-1.9,2.2-3.3
	c4.4-14.5,8.9-29,13.3-43.6c9.2-30.3,18.5-60.7,27.7-91.1c10.6-34.8,21.2-69.6,31.7-104.4c5.5-18.3,10.9-36.6,16.4-54.9
	C310.5,113.3,310.9,111.6,311.4,109.8z M489,525.9c0.6-0.5,1-0.8,1.4-1.2c3.3-3.4,6.7-6.9,10-10.4c13.2-14.2,26.3-28.4,39.4-42.6
	c0.7-0.7,1.5-1.4,2.4-1.7c4.9-1.9,9.1-5,13.3-8c0,0,0-0.2,0.1-0.5c-0.7-0.6-1.4-1.3-2.2-1.9c-16.2-13.6-32.4-27.1-48.6-40.7
	c-1.3-1.1-2.7-2.2-4.1-3.3c-1-0.8-1.8-0.8-2.8,0c-3.2,2.9-6.5,5.7-9.6,8.7c-13.8,13.3-27.6,26.7-41.3,40.1c-0.4,0.4-0.7,0.9-1.4,1.8
	c1.4,0.1,2.4,0.2,3.4,0.1c12.5-0.5,25.1-0.8,37.6-1.6c15-1,29.9-2.4,44.9-3.7c3.2-0.3,3.5-0.1,3.9,3.2c0,0.1,0,0.2,0,0.2
	c0.1,1.6-0.6,2.5-2.3,2.6c-11.5,1.2-23,2.7-34.6,3.6c-18,1.4-36,3.1-54.1,3.1c-0.6,0-1.1,0.2-1.9,0.4c0.4,0.6,0.6,1,0.8,1.3
	c2.6,2.7,5.2,5.4,7.8,8.2c9,9.9,18.5,19.2,27,29.6c0.7,0.9,1.5,1.8,2.3,2.7C483.3,519.2,486.1,522.5,489,525.9z M320,61.5
	c-2-0.2-2.6,0.8-3.3,1.7c-2.6,3.8-5.2,7.7-7.8,11.5c-6.7,10.1-13.3,20.1-20,30.2c-5.6,8.5-11.1,17.1-16.7,25.7
	c-5.5,8.5-11.1,17-16.6,25.6c-6.7,10.3-13.3,20.7-20,31.1c-7.2,11.1-14.5,22.2-21.7,33.4c-11,17.2-21.9,34.4-32.9,51.6
	c-6.7,10.6-13.5,21.1-20.3,31.7c-3.9,6.1-7.7,12.2-11.5,18.3c-5,7.9-9.9,15.9-14.9,23.8c-4.5,7.1-9.1,14.1-13.6,21.2
	c-5.4,8.6-10.8,17.2-16.3,25.7c-5.5,8.6-11.2,17.1-16.8,25.7c-0.8,1.2-1.6,2.5-2,4.4c1.2-0.4,2.1-0.5,2.8-0.9
	c7.4-3.1,14.8-6.1,22.1-9.2c1.2-0.5,2.1-1.3,2.8-2.5c4.7-7.8,9.5-15.5,14.3-23.3c16.3-26.6,32.6-53.1,48.9-79.7
	c15.2-24.9,30.4-49.8,45.6-74.7c20.3-33.2,40.7-66.4,60.9-99.7c4.9-8.1,10.4-15.9,14.4-24.6c6.9-14.8,14-29.5,21-44.2
	C319.2,63.6,319.5,62.7,320,61.5z M175.7,466.8c-0.1,0.2-0.2,0.4-0.3,0.7c14.6,17.2,29.2,34.4,44.2,51.2c0.5-0.3,0.7-0.4,0.9-0.6
	c10.1-7.7,20.2-15.4,30.3-23.2c8.2-6.3,16.4-12.6,24.5-18.9c0.9-0.7,1.6-1.5,2.8-2.5c-0.8-0.7-1.5-1.1-2-1.7
	c-4.6-5.1-9.2-10.2-13.8-15.3c-6-6.6-11.9-13.4-18-20c-4.5-4.9-9-9.7-13.7-14.5c-3.1-3.2-5-3.2-8.6-0.5c-0.1,0.1-0.3,0.2-0.4,0.3
	c-13.7,11.3-27.6,22.3-40.7,34.3c-0.6,0.5-1,1.1-1.7,2c0.9,0.3,1.5,0.6,2.1,0.7c1.8,0.3,3.6,0.6,5.5,0.7c3.2,0.3,6.4,0.5,9.6,0.6
	c8.3,0.5,16.6,1.1,24.9,1.3c10.2,0.3,20.5,0.4,30.7,0.5c2.2,0,4,0.8,5.8,1.8c1.5,0.8,2,2,1.9,3.5c0,1.5-0.9,2.4-2.3,3.1
	c-1.8,0.9-3.6,1.2-5.6,1.1c-18.1-1.1-36.2-2.2-54.4-3.3c-6.3-0.4-12.6-1-18.9-1.5C177.7,466.7,176.7,466.8,175.7,466.8z
	 M416.2,481.8c-0.1-0.2-0.3-0.4-0.4-0.7c-1,0.1-2,0.2-3,0.4c-6.6,1.4-13.2,2.8-19.9,2.9c-4.4,0.1-8.8-0.2-13.2-0.3
	c-3-0.1-5.9-0.2-8.9-0.3c-1.9,0-3.5,0.6-4.9,2.1c-2.1,2.3-4.4,4.4-6.5,6.7c-3.3,3.5-7,6.3-11.4,8.3c-1.5,0.6-2.9,1.4-4.3,2.2
	c-0.7,0.4-1.4,0.8-2,1.4c-2.7,2.9-5.3,5.8-7.9,8.6c2.1,2.7,26,21.6,29.6,23.1C381,518.2,399.4,500.8,416.2,481.8z M151.2,461
	c-2.2-0.4-4.1-0.8-6.1-1.2c-18.4-3.4-36.6-7.7-54.7-12.5c-1.4-0.4-2.8-0.7-4.2-0.8c-1.7-0.1-2.5,0.7-2.1,2.3
	c0.9,4.2,1.6,8.5,3.9,12.3c7.4,12.3,14.7,24.6,22.1,36.8c0.5,0.9,1.1,1.7,1.7,2.5C114.4,498.7,150,463.2,151.2,461z"/>
</svg>
